ISO-10303-21;
HEADER;
/* Generated by software containing ST-Developer
 * from STEP Tools, Inc. (www.steptools.com) 
 */

FILE_DESCRIPTION(
/* description */ (''),
/* implementation_level */ '2;1');

FILE_NAME(
/* name */ 'case-v1.step',
/* time_stamp */ '2026-01-25T07:48:43+05:30',
/* author */ (''),
/* organization */ (''),
/* preprocessor_version */ 'ST-DEVELOPER v20.1',
/* originating_system */ 'Autodesk Translation Framework v14.24.0.0',
/* authorisation */ '');

FILE_SCHEMA (('AUTOMOTIVE_DESIGN { 1 0 10303 214 3 1 1 }'));
ENDSEC;

DATA;
#10=MECHANICAL_DESIGN_GEOMETRIC_PRESENTATION_REPRESENTATION('',(#13),#1689);
#11=SHAPE_REPRESENTATION_RELATIONSHIP('SRR','None',#1696,#12);
#12=ADVANCED_BREP_SHAPE_REPRESENTATION('',(#14),#1688);
#13=STYLED_ITEM('',(#1706),#14);
#14=MANIFOLD_SOLID_BREP('Body1',#1015);
#15=CYLINDRICAL_SURFACE('',#1068,1.4);
#16=CYLINDRICAL_SURFACE('',#1073,1.4);
#17=CYLINDRICAL_SURFACE('',#1075,1.4);
#18=CYLINDRICAL_SURFACE('',#1077,1.40000000000001);
#19=CYLINDRICAL_SURFACE('',#1079,4.);
#20=CYLINDRICAL_SURFACE('',#1080,4.);
#21=CYLINDRICAL_SURFACE('',#1081,4.);
#22=CYLINDRICAL_SURFACE('',#1082,4.);
#23=CYLINDRICAL_SURFACE('',#1091,3.);
#24=CYLINDRICAL_SURFACE('',#1094,1.4);
#25=CYLINDRICAL_SURFACE('',#1097,3.);
#26=CYLINDRICAL_SURFACE('',#1101,1.4);
#27=CYLINDRICAL_SURFACE('',#1104,3.);
#28=CYLINDRICAL_SURFACE('',#1108,3.);
#29=FACE_BOUND('',#144,.T.);
#30=FACE_BOUND('',#145,.T.);
#31=FACE_BOUND('',#146,.T.);
#32=FACE_BOUND('',#147,.T.);
#33=FACE_BOUND('',#159,.T.);
#34=FACE_BOUND('',#161,.T.);
#35=FACE_BOUND('',#173,.T.);
#36=FACE_BOUND('',#174,.T.);
#37=FACE_BOUND('',#175,.T.);
#38=FACE_BOUND('',#176,.T.);
#39=FACE_BOUND('',#182,.T.);
#40=FACE_BOUND('',#187,.T.);
#41=FACE_BOUND('',#192,.T.);
#42=FACE_BOUND('',#194,.T.);
#43=CIRCLE('',#1042,3.99999999999999);
#44=CIRCLE('',#1043,4.);
#45=CIRCLE('',#1044,4.);
#46=CIRCLE('',#1045,3.99999999999999);
#47=CIRCLE('',#1046,1.4);
#48=CIRCLE('',#1047,1.4);
#49=CIRCLE('',#1048,1.4);
#50=CIRCLE('',#1049,1.40000000000001);
#51=CIRCLE('',#1055,1.4);
#52=CIRCLE('',#1056,1.4);
#53=CIRCLE('',#1057,3.99999999999999);
#54=CIRCLE('',#1059,3.99999999999999);
#55=CIRCLE('',#1060,1.40000000000001);
#56=CIRCLE('',#1061,1.40000000000001);
#57=CIRCLE('',#1063,4.);
#58=CIRCLE('',#1064,1.4);
#59=CIRCLE('',#1066,1.4);
#60=CIRCLE('',#1067,4.);
#61=CIRCLE('',#1069,1.4);
#62=CIRCLE('',#1074,1.4);
#63=CIRCLE('',#1076,1.4);
#64=CIRCLE('',#1078,1.40000000000001);
#65=CIRCLE('',#1087,3.);
#66=CIRCLE('',#1088,3.);
#67=CIRCLE('',#1089,3.);
#68=CIRCLE('',#1090,3.);
#69=CIRCLE('',#1092,3.);
#70=CIRCLE('',#1095,1.4);
#71=CIRCLE('',#1096,1.4);
#72=CIRCLE('',#1098,3.);
#73=CIRCLE('',#1102,1.4);
#74=CIRCLE('',#1103,1.4);
#75=CIRCLE('',#1105,3.);
#76=CIRCLE('',#1109,3.);
#77=FACE_OUTER_BOUND('',#131,.T.);
#78=FACE_OUTER_BOUND('',#132,.T.);
#79=FACE_OUTER_BOUND('',#133,.T.);
#80=FACE_OUTER_BOUND('',#134,.T.);
#81=FACE_OUTER_BOUND('',#135,.T.);
#82=FACE_OUTER_BOUND('',#136,.T.);
#83=FACE_OUTER_BOUND('',#137,.T.);
#84=FACE_OUTER_BOUND('',#138,.T.);
#85=FACE_OUTER_BOUND('',#139,.T.);
#86=FACE_OUTER_BOUND('',#140,.T.);
#87=FACE_OUTER_BOUND('',#141,.T.);
#88=FACE_OUTER_BOUND('',#142,.T.);
#89=FACE_OUTER_BOUND('',#143,.T.);
#90=FACE_OUTER_BOUND('',#148,.T.);
#91=FACE_OUTER_BOUND('',#149,.T.);
#92=FACE_OUTER_BOUND('',#150,.T.);
#93=FACE_OUTER_BOUND('',#151,.T.);
#94=FACE_OUTER_BOUND('',#152,.T.);
#95=FACE_OUTER_BOUND('',#153,.T.);
#96=FACE_OUTER_BOUND('',#154,.T.);
#97=FACE_OUTER_BOUND('',#155,.T.);
#98=FACE_OUTER_BOUND('',#156,.T.);
#99=FACE_OUTER_BOUND('',#157,.T.);
#100=FACE_OUTER_BOUND('',#158,.T.);
#101=FACE_OUTER_BOUND('',#160,.T.);
#102=FACE_OUTER_BOUND('',#162,.T.);
#103=FACE_OUTER_BOUND('',#163,.T.);
#104=FACE_OUTER_BOUND('',#164,.T.);
#105=FACE_OUTER_BOUND('',#165,.T.);
#106=FACE_OUTER_BOUND('',#166,.T.);
#107=FACE_OUTER_BOUND('',#167,.T.);
#108=FACE_OUTER_BOUND('',#168,.T.);
#109=FACE_OUTER_BOUND('',#169,.T.);
#110=FACE_OUTER_BOUND('',#170,.T.);
#111=FACE_OUTER_BOUND('',#171,.T.);
#112=FACE_OUTER_BOUND('',#172,.T.);
#113=FACE_OUTER_BOUND('',#177,.T.);
#114=FACE_OUTER_BOUND('',#178,.T.);
#115=FACE_OUTER_BOUND('',#179,.T.);
#116=FACE_OUTER_BOUND('',#180,.T.);
#117=FACE_OUTER_BOUND('',#181,.T.);
#118=FACE_OUTER_BOUND('',#183,.T.);
#119=FACE_OUTER_BOUND('',#184,.T.);
#120=FACE_OUTER_BOUND('',#185,.T.);
#121=FACE_OUTER_BOUND('',#186,.T.);
#122=FACE_OUTER_BOUND('',#188,.T.);
#123=FACE_OUTER_BOUND('',#189,.T.);
#124=FACE_OUTER_BOUND('',#190,.T.);
#125=FACE_OUTER_BOUND('',#191,.T.);
#126=FACE_OUTER_BOUND('',#193,.T.);
#127=FACE_OUTER_BOUND('',#195,.T.);
#128=FACE_OUTER_BOUND('',#196,.T.);
#129=FACE_OUTER_BOUND('',#197,.T.);
#130=FACE_OUTER_BOUND('',#198,.T.);
#131=EDGE_LOOP('',(#641,#642,#643,#644));
#132=EDGE_LOOP('',(#645,#646,#647,#648));
#133=EDGE_LOOP('',(#649,#650,#651,#652));
#134=EDGE_LOOP('',(#653,#654,#655,#656));
#135=EDGE_LOOP('',(#657,#658,#659,#660));
#136=EDGE_LOOP('',(#661,#662,#663,#664));
#137=EDGE_LOOP('',(#665,#666,#667,#668));
#138=EDGE_LOOP('',(#669,#670,#671,#672));
#139=EDGE_LOOP('',(#673,#674,#675,#676));
#140=EDGE_LOOP('',(#677,#678,#679,#680));
#141=EDGE_LOOP('',(#681,#682,#683,#684));
#142=EDGE_LOOP('',(#685,#686,#687,#688,#689,#690,#691,#692,#693,#694,#695,
#696));
#143=EDGE_LOOP('',(#697,#698,#699,#700,#701,#702,#703,#704,#705,#706,#707,
#708,#709,#710,#711,#712));
#144=EDGE_LOOP('',(#713));
#145=EDGE_LOOP('',(#714));
#146=EDGE_LOOP('',(#715));
#147=EDGE_LOOP('',(#716));
#148=EDGE_LOOP('',(#717,#718,#719,#720));
#149=EDGE_LOOP('',(#721,#722,#723,#724));
#150=EDGE_LOOP('',(#725,#726,#727,#728));
#151=EDGE_LOOP('',(#729,#730,#731,#732));
#152=EDGE_LOOP('',(#733,#734,#735,#736,#737));
#153=EDGE_LOOP('',(#738,#739,#740,#741,#742));
#154=EDGE_LOOP('',(#743,#744,#745,#746));
#155=EDGE_LOOP('',(#747,#748,#749,#750));
#156=EDGE_LOOP('',(#751,#752,#753,#754,#755));
#157=EDGE_LOOP('',(#756,#757,#758,#759));
#158=EDGE_LOOP('',(#760,#761,#762,#763));
#159=EDGE_LOOP('',(#764,#765,#766,#767));
#160=EDGE_LOOP('',(#768,#769,#770,#771));
#161=EDGE_LOOP('',(#772,#773,#774,#775));
#162=EDGE_LOOP('',(#776,#777,#778,#779,#780));
#163=EDGE_LOOP('',(#781,#782,#783,#784,#785,#786));
#164=EDGE_LOOP('',(#787,#788,#789,#790,#791,#792));
#165=EDGE_LOOP('',(#793,#794,#795,#796));
#166=EDGE_LOOP('',(#797,#798,#799,#800));
#167=EDGE_LOOP('',(#801,#802,#803,#804));
#168=EDGE_LOOP('',(#805,#806,#807,#808));
#169=EDGE_LOOP('',(#809,#810,#811));
#170=EDGE_LOOP('',(#812,#813,#814));
#171=EDGE_LOOP('',(#815,#816,#817));
#172=EDGE_LOOP('',(#818,#819,#820,#821));
#173=EDGE_LOOP('',(#822));
#174=EDGE_LOOP('',(#823));
#175=EDGE_LOOP('',(#824));
#176=EDGE_LOOP('',(#825));
#177=EDGE_LOOP('',(#826,#827,#828,#829));
#178=EDGE_LOOP('',(#830));
#179=EDGE_LOOP('',(#831,#832,#833,#834));
#180=EDGE_LOOP('',(#835,#836,#837,#838));
#181=EDGE_LOOP('',(#839));
#182=EDGE_LOOP('',(#840));
#183=EDGE_LOOP('',(#841,#842,#843));
#184=EDGE_LOOP('',(#844,#845,#846,#847));
#185=EDGE_LOOP('',(#848,#849,#850,#851));
#186=EDGE_LOOP('',(#852));
#187=EDGE_LOOP('',(#853));
#188=EDGE_LOOP('',(#854));
#189=EDGE_LOOP('',(#855,#856,#857,#858));
#190=EDGE_LOOP('',(#859));
#191=EDGE_LOOP('',(#860,#861,#862,#863,#864,#865,#866,#867,#868,#869));
#192=EDGE_LOOP('',(#870,#871,#872,#873));
#193=EDGE_LOOP('',(#874,#875,#876,#877,#878,#879,#880,#881,#882,#883));
#194=EDGE_LOOP('',(#884,#885,#886,#887));
#195=EDGE_LOOP('',(#888,#889,#890,#891,#892,#893,#894,#895,#896,#897));
#196=EDGE_LOOP('',(#898,#899,#900,#901,#902,#903,#904,#905,#906,#907,#908,
#909,#910,#911,#912,#913,#914,#915));
#197=EDGE_LOOP('',(#916));
#198=EDGE_LOOP('',(#917,#918,#919,#920));
#199=LINE('',#1405,#305);
#200=LINE('',#1407,#306);
#201=LINE('',#1409,#307);
#202=LINE('',#1410,#308);
#203=LINE('',#1413,#309);
#204=LINE('',#1415,#310);
#205=LINE('',#1416,#311);
#206=LINE('',#1419,#312);
#207=LINE('',#1421,#313);
#208=LINE('',#1422,#314);
#209=LINE('',#1424,#315);
#210=LINE('',#1425,#316);
#211=LINE('',#1429,#317);
#212=LINE('',#1431,#318);
#213=LINE('',#1433,#319);
#214=LINE('',#1434,#320);
#215=LINE('',#1437,#321);
#216=LINE('',#1439,#322);
#217=LINE('',#1440,#323);
#218=LINE('',#1443,#324);
#219=LINE('',#1445,#325);
#220=LINE('',#1446,#326);
#221=LINE('',#1448,#327);
#222=LINE('',#1449,#328);
#223=LINE('',#1453,#329);
#224=LINE('',#1455,#330);
#225=LINE('',#1457,#331);
#226=LINE('',#1458,#332);
#227=LINE('',#1461,#333);
#228=LINE('',#1463,#334);
#229=LINE('',#1464,#335);
#230=LINE('',#1467,#336);
#231=LINE('',#1469,#337);
#232=LINE('',#1470,#338);
#233=LINE('',#1473,#339);
#234=LINE('',#1475,#340);
#235=LINE('',#1477,#341);
#236=LINE('',#1479,#342);
#237=LINE('',#1481,#343);
#238=LINE('',#1483,#344);
#239=LINE('',#1485,#345);
#240=LINE('',#1487,#346);
#241=LINE('',#1488,#347);
#242=LINE('',#1491,#348);
#243=LINE('',#1495,#349);
#244=LINE('',#1499,#350);
#245=LINE('',#1503,#351);
#246=LINE('',#1507,#352);
#247=LINE('',#1508,#353);
#248=LINE('',#1510,#354);
#249=LINE('',#1512,#355);
#250=LINE('',#1513,#356);
#251=LINE('',#1524,#357);
#252=LINE('',#1525,#358);
#253=LINE('',#1528,#359);
#254=LINE('',#1529,#360);
#255=LINE('',#1532,#361);
#256=LINE('',#1533,#362);
#257=LINE('',#1535,#363);
#258=LINE('',#1539,#364);
#259=LINE('',#1545,#365);
#260=LINE('',#1550,#366);
#261=LINE('',#1554,#367);
#262=LINE('',#1561,#368);
#263=LINE('',#1565,#369);
#264=LINE('',#1570,#370);
#265=LINE('',#1574,#371);
#266=LINE('',#1577,#372);
#267=LINE('',#1581,#373);
#268=LINE('',#1582,#374);
#269=LINE('',#1585,#375);
#270=LINE('',#1586,#376);
#271=LINE('',#1588,#377);
#272=LINE('',#1590,#378);
#273=LINE('',#1593,#379);
#274=LINE('',#1596,#380);
#275=LINE('',#1599,#381);
#276=LINE('',#1600,#382);
#277=LINE('',#1602,#383);
#278=LINE('',#1603,#384);
#279=LINE('',#1605,#385);
#280=LINE('',#1606,#386);
#281=LINE('',#1608,#387);
#282=LINE('',#1609,#388);
#283=LINE('',#1612,#389);
#284=LINE('',#1613,#390);
#285=LINE('',#1616,#391);
#286=LINE('',#1617,#392);
#287=LINE('',#1620,#393);
#288=LINE('',#1621,#394);
#289=LINE('',#1634,#395);
#290=LINE('',#1640,#396);
#291=LINE('',#1645,#397);
#292=LINE('',#1649,#398);
#293=LINE('',#1650,#399);
#294=LINE('',#1655,#400);
#295=LINE('',#1660,#401);
#296=LINE('',#1666,#402);
#297=LINE('',#1671,#403);
#298=LINE('',#1672,#404);
#299=LINE('',#1673,#405);
#300=LINE('',#1676,#406);
#301=LINE('',#1677,#407);
#302=LINE('',#1680,#408);
#303=LINE('',#1681,#409);
#304=LINE('',#1683,#410);
#305=VECTOR('',#1121,10.);
#306=VECTOR('',#1122,10.);
#307=VECTOR('',#1123,10.);
#308=VECTOR('',#1124,10.);
#309=VECTOR('',#1127,10.);
#310=VECTOR('',#1128,10.);
#311=VECTOR('',#1129,10.);
#312=VECTOR('',#1132,10.);
#313=VECTOR('',#1133,10.);
#314=VECTOR('',#1134,10.);
#315=VECTOR('',#1137,10.);
#316=VECTOR('',#1138,10.);
#317=VECTOR('',#1141,10.);
#318=VECTOR('',#1142,10.);
#319=VECTOR('',#1143,10.);
#320=VECTOR('',#1144,10.);
#321=VECTOR('',#1147,10.);
#322=VECTOR('',#1148,10.);
#323=VECTOR('',#1149,10.);
#324=VECTOR('',#1152,10.);
#325=VECTOR('',#1153,10.);
#326=VECTOR('',#1154,10.);
#327=VECTOR('',#1157,10.);
#328=VECTOR('',#1158,10.);
#329=VECTOR('',#1161,10.);
#330=VECTOR('',#1162,10.);
#331=VECTOR('',#1163,10.);
#332=VECTOR('',#1164,10.);
#333=VECTOR('',#1167,10.);
#334=VECTOR('',#1168,10.);
#335=VECTOR('',#1169,10.);
#336=VECTOR('',#1172,10.);
#337=VECTOR('',#1173,10.);
#338=VECTOR('',#1174,10.);
#339=VECTOR('',#1177,10.);
#340=VECTOR('',#1178,10.);
#341=VECTOR('',#1179,10.);
#342=VECTOR('',#1180,10.);
#343=VECTOR('',#1181,10.);
#344=VECTOR('',#1182,10.);
#345=VECTOR('',#1183,10.);
#346=VECTOR('',#1184,10.);
#347=VECTOR('',#1185,10.);
#348=VECTOR('',#1188,10.);
#349=VECTOR('',#1191,10.);
#350=VECTOR('',#1194,10.);
#351=VECTOR('',#1197,10.);
#352=VECTOR('',#1200,10.);
#353=VECTOR('',#1201,10.);
#354=VECTOR('',#1202,10.);
#355=VECTOR('',#1203,10.);
#356=VECTOR('',#1204,10.);
#357=VECTOR('',#1215,10.);
#358=VECTOR('',#1216,10.);
#359=VECTOR('',#1219,10.);
#360=VECTOR('',#1220,10.);
#361=VECTOR('',#1223,10.);
#362=VECTOR('',#1224,10.);
#363=VECTOR('',#1227,10.);
#364=VECTOR('',#1230,10.);
#365=VECTOR('',#1235,10.);
#366=VECTOR('',#1240,10.);
#367=VECTOR('',#1243,10.);
#368=VECTOR('',#1250,10.);
#369=VECTOR('',#1253,10.);
#370=VECTOR('',#1258,10.);
#371=VECTOR('',#1261,10.);
#372=VECTOR('',#1266,1.4);
#373=VECTOR('',#1271,10.);
#374=VECTOR('',#1272,10.);
#375=VECTOR('',#1275,10.);
#376=VECTOR('',#1276,10.);
#377=VECTOR('',#1279,10.);
#378=VECTOR('',#1282,1.4);
#379=VECTOR('',#1287,1.4);
#380=VECTOR('',#1292,1.40000000000001);
#381=VECTOR('',#1297,10.);
#382=VECTOR('',#1298,10.);
#383=VECTOR('',#1301,10.);
#384=VECTOR('',#1302,10.);
#385=VECTOR('',#1305,10.);
#386=VECTOR('',#1306,10.);
#387=VECTOR('',#1309,10.);
#388=VECTOR('',#1310,10.);
#389=VECTOR('',#1313,10.);
#390=VECTOR('',#1314,10.);
#391=VECTOR('',#1317,10.);
#392=VECTOR('',#1318,10.);
#393=VECTOR('',#1321,10.);
#394=VECTOR('',#1322,10.);
#395=VECTOR('',#1337,3.);
#396=VECTOR('',#1344,1.4);
#397=VECTOR('',#1351,3.);
#398=VECTOR('',#1356,10.);
#399=VECTOR('',#1357,10.);
#400=VECTOR('',#1362,1.4);
#401=VECTOR('',#1369,3.);
#402=VECTOR('',#1378,3.);
#403=VECTOR('',#1383,10.);
#404=VECTOR('',#1384,10.);
#405=VECTOR('',#1385,10.);
#406=VECTOR('',#1388,10.);
#407=VECTOR('',#1389,10.);
#408=VECTOR('',#1392,10.);
#409=VECTOR('',#1393,10.);
#410=VECTOR('',#1396,10.);
#411=VERTEX_POINT('',#1403);
#412=VERTEX_POINT('',#1404);
#413=VERTEX_POINT('',#1406);
#414=VERTEX_POINT('',#1408);
#415=VERTEX_POINT('',#1412);
#416=VERTEX_POINT('',#1414);
#417=VERTEX_POINT('',#1418);
#418=VERTEX_POINT('',#1420);
#419=VERTEX_POINT('',#1427);
#420=VERTEX_POINT('',#1428);
#421=VERTEX_POINT('',#1430);
#422=VERTEX_POINT('',#1432);
#423=VERTEX_POINT('',#1436);
#424=VERTEX_POINT('',#1438);
#425=VERTEX_POINT('',#1442);
#426=VERTEX_POINT('',#1444);
#427=VERTEX_POINT('',#1451);
#428=VERTEX_POINT('',#1452);
#429=VERTEX_POINT('',#1454);
#430=VERTEX_POINT('',#1456);
#431=VERTEX_POINT('',#1460);
#432=VERTEX_POINT('',#1462);
#433=VERTEX_POINT('',#1466);
#434=VERTEX_POINT('',#1468);
#435=VERTEX_POINT('',#1472);
#436=VERTEX_POINT('',#1474);
#437=VERTEX_POINT('',#1476);
#438=VERTEX_POINT('',#1478);
#439=VERTEX_POINT('',#1480);
#440=VERTEX_POINT('',#1482);
#441=VERTEX_POINT('',#1484);
#442=VERTEX_POINT('',#1486);
#443=VERTEX_POINT('',#1490);
#444=VERTEX_POINT('',#1492);
#445=VERTEX_POINT('',#1494);
#446=VERTEX_POINT('',#1496);
#447=VERTEX_POINT('',#1498);
#448=VERTEX_POINT('',#1500);
#449=VERTEX_POINT('',#1502);
#450=VERTEX_POINT('',#1504);
#451=VERTEX_POINT('',#1506);
#452=VERTEX_POINT('',#1509);
#453=VERTEX_POINT('',#1511);
#454=VERTEX_POINT('',#1514);
#455=VERTEX_POINT('',#1516);
#456=VERTEX_POINT('',#1518);
#457=VERTEX_POINT('',#1520);
#458=VERTEX_POINT('',#1523);
#459=VERTEX_POINT('',#1527);
#460=VERTEX_POINT('',#1531);
#461=VERTEX_POINT('',#1537);
#462=VERTEX_POINT('',#1538);
#463=VERTEX_POINT('',#1540);
#464=VERTEX_POINT('',#1542);
#465=VERTEX_POINT('',#1544);
#466=VERTEX_POINT('',#1548);
#467=VERTEX_POINT('',#1549);
#468=VERTEX_POINT('',#1551);
#469=VERTEX_POINT('',#1553);
#470=VERTEX_POINT('',#1555);
#471=VERTEX_POINT('',#1559);
#472=VERTEX_POINT('',#1560);
#473=VERTEX_POINT('',#1562);
#474=VERTEX_POINT('',#1564);
#475=VERTEX_POINT('',#1568);
#476=VERTEX_POINT('',#1569);
#477=VERTEX_POINT('',#1571);
#478=VERTEX_POINT('',#1573);
#479=VERTEX_POINT('',#1580);
#480=VERTEX_POINT('',#1584);
#481=VERTEX_POINT('',#1611);
#482=VERTEX_POINT('',#1615);
#483=VERTEX_POINT('',#1619);
#484=VERTEX_POINT('',#1623);
#485=VERTEX_POINT('',#1625);
#486=VERTEX_POINT('',#1627);
#487=VERTEX_POINT('',#1629);
#488=VERTEX_POINT('',#1632);
#489=VERTEX_POINT('',#1637);
#490=VERTEX_POINT('',#1639);
#491=VERTEX_POINT('',#1643);
#492=VERTEX_POINT('',#1648);
#493=VERTEX_POINT('',#1652);
#494=VERTEX_POINT('',#1654);
#495=VERTEX_POINT('',#1658);
#496=VERTEX_POINT('',#1664);
#497=VERTEX_POINT('',#1669);
#498=VERTEX_POINT('',#1670);
#499=VERTEX_POINT('',#1675);
#500=VERTEX_POINT('',#1679);
#501=EDGE_CURVE('',#411,#412,#199,.T.);
#502=EDGE_CURVE('',#411,#413,#200,.T.);
#503=EDGE_CURVE('',#414,#413,#201,.T.);
#504=EDGE_CURVE('',#412,#414,#202,.T.);
#505=EDGE_CURVE('',#415,#411,#203,.T.);
#506=EDGE_CURVE('',#415,#416,#204,.T.);
#507=EDGE_CURVE('',#413,#416,#205,.T.);
#508=EDGE_CURVE('',#417,#415,#206,.T.);
#509=EDGE_CURVE('',#417,#418,#207,.T.);
#510=EDGE_CURVE('',#416,#418,#208,.T.);
#511=EDGE_CURVE('',#412,#417,#209,.T.);
#512=EDGE_CURVE('',#418,#414,#210,.T.);
#513=EDGE_CURVE('',#419,#420,#211,.T.);
#514=EDGE_CURVE('',#421,#419,#212,.T.);
#515=EDGE_CURVE('',#422,#421,#213,.T.);
#516=EDGE_CURVE('',#422,#420,#214,.T.);
#517=EDGE_CURVE('',#420,#423,#215,.T.);
#518=EDGE_CURVE('',#424,#422,#216,.T.);
#519=EDGE_CURVE('',#424,#423,#217,.T.);
#520=EDGE_CURVE('',#423,#425,#218,.T.);
#521=EDGE_CURVE('',#426,#424,#219,.T.);
#522=EDGE_CURVE('',#426,#425,#220,.T.);
#523=EDGE_CURVE('',#425,#419,#221,.T.);
#524=EDGE_CURVE('',#421,#426,#222,.T.);
#525=EDGE_CURVE('',#427,#428,#223,.T.);
#526=EDGE_CURVE('',#429,#427,#224,.T.);
#527=EDGE_CURVE('',#430,#429,#225,.T.);
#528=EDGE_CURVE('',#430,#428,#226,.T.);
#529=EDGE_CURVE('',#428,#431,#227,.T.);
#530=EDGE_CURVE('',#432,#430,#228,.T.);
#531=EDGE_CURVE('',#431,#432,#229,.T.);
#532=EDGE_CURVE('',#433,#427,#230,.T.);
#533=EDGE_CURVE('',#434,#433,#231,.T.);
#534=EDGE_CURVE('',#429,#434,#232,.T.);
#535=EDGE_CURVE('',#435,#431,#233,.T.);
#536=EDGE_CURVE('',#436,#435,#234,.T.);
#537=EDGE_CURVE('',#437,#436,#235,.T.);
#538=EDGE_CURVE('',#437,#438,#236,.T.);
#539=EDGE_CURVE('',#439,#438,#237,.T.);
#540=EDGE_CURVE('',#439,#440,#238,.T.);
#541=EDGE_CURVE('',#440,#441,#239,.T.);
#542=EDGE_CURVE('',#441,#442,#240,.T.);
#543=EDGE_CURVE('',#433,#442,#241,.T.);
#544=EDGE_CURVE('',#432,#443,#242,.T.);
#545=EDGE_CURVE('',#443,#444,#43,.T.);
#546=EDGE_CURVE('',#444,#445,#243,.T.);
#547=EDGE_CURVE('',#445,#446,#44,.T.);
#548=EDGE_CURVE('',#446,#447,#244,.T.);
#549=EDGE_CURVE('',#447,#448,#45,.T.);
#550=EDGE_CURVE('',#448,#449,#245,.T.);
#551=EDGE_CURVE('',#449,#450,#46,.T.);
#552=EDGE_CURVE('',#450,#451,#246,.T.);
#553=EDGE_CURVE('',#451,#439,#247,.T.);
#554=EDGE_CURVE('',#438,#452,#248,.T.);
#555=EDGE_CURVE('',#452,#453,#249,.T.);
#556=EDGE_CURVE('',#453,#435,#250,.T.);
#557=EDGE_CURVE('',#454,#454,#47,.T.);
#558=EDGE_CURVE('',#455,#455,#48,.T.);
#559=EDGE_CURVE('',#456,#456,#49,.T.);
#560=EDGE_CURVE('',#457,#457,#50,.T.);
#561=EDGE_CURVE('',#458,#451,#251,.T.);
#562=EDGE_CURVE('',#458,#440,#252,.T.);
#563=EDGE_CURVE('',#459,#458,#253,.T.);
#564=EDGE_CURVE('',#459,#441,#254,.T.);
#565=EDGE_CURVE('',#460,#459,#255,.T.);
#566=EDGE_CURVE('',#442,#460,#256,.T.);
#567=EDGE_CURVE('',#460,#434,#257,.T.);
#568=EDGE_CURVE('',#461,#462,#258,.T.);
#569=EDGE_CURVE('',#463,#462,#51,.T.);
#570=EDGE_CURVE('',#464,#463,#52,.T.);
#571=EDGE_CURVE('',#464,#465,#259,.T.);
#572=EDGE_CURVE('',#461,#465,#53,.T.);
#573=EDGE_CURVE('',#466,#467,#260,.T.);
#574=EDGE_CURVE('',#468,#467,#54,.T.);
#575=EDGE_CURVE('',#468,#469,#261,.T.);
#576=EDGE_CURVE('',#470,#469,#55,.T.);
#577=EDGE_CURVE('',#466,#470,#56,.T.);
#578=EDGE_CURVE('',#471,#472,#262,.T.);
#579=EDGE_CURVE('',#473,#472,#57,.T.);
#580=EDGE_CURVE('',#473,#474,#263,.T.);
#581=EDGE_CURVE('',#471,#474,#58,.T.);
#582=EDGE_CURVE('',#475,#476,#264,.T.);
#583=EDGE_CURVE('',#477,#476,#59,.T.);
#584=EDGE_CURVE('',#477,#478,#265,.T.);
#585=EDGE_CURVE('',#475,#478,#60,.T.);
#586=EDGE_CURVE('',#454,#477,#266,.T.);
#587=EDGE_CURVE('',#477,#476,#61,.T.);
#588=EDGE_CURVE('',#436,#479,#267,.T.);
#589=EDGE_CURVE('',#479,#453,#268,.T.);
#590=EDGE_CURVE('',#479,#480,#269,.T.);
#591=EDGE_CURVE('',#480,#452,#270,.T.);
#592=EDGE_CURVE('',#480,#437,#271,.T.);
#593=EDGE_CURVE('',#455,#474,#272,.T.);
#594=EDGE_CURVE('',#471,#474,#62,.T.);
#595=EDGE_CURVE('',#456,#463,#273,.T.);
#596=EDGE_CURVE('',#464,#462,#63,.T.);
#597=EDGE_CURVE('',#457,#470,#274,.T.);
#598=EDGE_CURVE('',#466,#469,#64,.T.);
#599=EDGE_CURVE('',#478,#448,#275,.T.);
#600=EDGE_CURVE('',#475,#447,#276,.T.);
#601=EDGE_CURVE('',#472,#446,#277,.T.);
#602=EDGE_CURVE('',#473,#445,#278,.T.);
#603=EDGE_CURVE('',#467,#444,#279,.T.);
#604=EDGE_CURVE('',#468,#443,#280,.T.);
#605=EDGE_CURVE('',#465,#450,#281,.T.);
#606=EDGE_CURVE('',#461,#449,#282,.T.);
#607=EDGE_CURVE('',#469,#481,#283,.T.);
#608=EDGE_CURVE('',#481,#466,#284,.T.);
#609=EDGE_CURVE('',#474,#482,#285,.T.);
#610=EDGE_CURVE('',#482,#471,#286,.T.);
#611=EDGE_CURVE('',#462,#483,#287,.T.);
#612=EDGE_CURVE('',#483,#464,#288,.T.);
#613=EDGE_CURVE('',#484,#484,#65,.T.);
#614=EDGE_CURVE('',#485,#485,#66,.T.);
#615=EDGE_CURVE('',#486,#486,#67,.T.);
#616=EDGE_CURVE('',#487,#487,#68,.T.);
#617=EDGE_CURVE('',#488,#488,#69,.T.);
#618=EDGE_CURVE('',#488,#487,#289,.T.);
#619=EDGE_CURVE('',#489,#489,#70,.T.);
#620=EDGE_CURVE('',#489,#490,#290,.T.);
#621=EDGE_CURVE('',#490,#490,#71,.T.);
#622=EDGE_CURVE('',#491,#491,#72,.T.);
#623=EDGE_CURVE('',#491,#484,#291,.T.);
#624=EDGE_CURVE('',#476,#492,#292,.T.);
#625=EDGE_CURVE('',#492,#477,#293,.T.);
#626=EDGE_CURVE('',#493,#493,#73,.T.);
#627=EDGE_CURVE('',#493,#494,#294,.T.);
#628=EDGE_CURVE('',#494,#494,#74,.T.);
#629=EDGE_CURVE('',#495,#495,#75,.T.);
#630=EDGE_CURVE('',#495,#486,#295,.T.);
#631=EDGE_CURVE('',#496,#496,#76,.T.);
#632=EDGE_CURVE('',#496,#485,#296,.T.);
#633=EDGE_CURVE('',#497,#498,#297,.T.);
#634=EDGE_CURVE('',#498,#483,#298,.T.);
#635=EDGE_CURVE('',#497,#492,#299,.T.);
#636=EDGE_CURVE('',#499,#497,#300,.T.);
#637=EDGE_CURVE('',#499,#482,#301,.T.);
#638=EDGE_CURVE('',#500,#499,#302,.T.);
#639=EDGE_CURVE('',#500,#481,#303,.T.);
#640=EDGE_CURVE('',#498,#500,#304,.T.);
#641=ORIENTED_EDGE('',*,*,#501,.F.);
#642=ORIENTED_EDGE('',*,*,#502,.T.);
#643=ORIENTED_EDGE('',*,*,#503,.F.);
#644=ORIENTED_EDGE('',*,*,#504,.F.);
#645=ORIENTED_EDGE('',*,*,#505,.F.);
#646=ORIENTED_EDGE('',*,*,#506,.T.);
#647=ORIENTED_EDGE('',*,*,#507,.F.);
#648=ORIENTED_EDGE('',*,*,#502,.F.);
#649=ORIENTED_EDGE('',*,*,#508,.F.);
#650=ORIENTED_EDGE('',*,*,#509,.T.);
#651=ORIENTED_EDGE('',*,*,#510,.F.);
#652=ORIENTED_EDGE('',*,*,#506,.F.);
#653=ORIENTED_EDGE('',*,*,#511,.F.);
#654=ORIENTED_EDGE('',*,*,#504,.T.);
#655=ORIENTED_EDGE('',*,*,#512,.F.);
#656=ORIENTED_EDGE('',*,*,#509,.F.);
#657=ORIENTED_EDGE('',*,*,#513,.F.);
#658=ORIENTED_EDGE('',*,*,#514,.F.);
#659=ORIENTED_EDGE('',*,*,#515,.F.);
#660=ORIENTED_EDGE('',*,*,#516,.T.);
#661=ORIENTED_EDGE('',*,*,#517,.F.);
#662=ORIENTED_EDGE('',*,*,#516,.F.);
#663=ORIENTED_EDGE('',*,*,#518,.F.);
#664=ORIENTED_EDGE('',*,*,#519,.T.);
#665=ORIENTED_EDGE('',*,*,#520,.F.);
#666=ORIENTED_EDGE('',*,*,#519,.F.);
#667=ORIENTED_EDGE('',*,*,#521,.F.);
#668=ORIENTED_EDGE('',*,*,#522,.T.);
#669=ORIENTED_EDGE('',*,*,#523,.F.);
#670=ORIENTED_EDGE('',*,*,#522,.F.);
#671=ORIENTED_EDGE('',*,*,#524,.F.);
#672=ORIENTED_EDGE('',*,*,#514,.T.);
#673=ORIENTED_EDGE('',*,*,#525,.F.);
#674=ORIENTED_EDGE('',*,*,#526,.F.);
#675=ORIENTED_EDGE('',*,*,#527,.F.);
#676=ORIENTED_EDGE('',*,*,#528,.T.);
#677=ORIENTED_EDGE('',*,*,#529,.F.);
#678=ORIENTED_EDGE('',*,*,#528,.F.);
#679=ORIENTED_EDGE('',*,*,#530,.F.);
#680=ORIENTED_EDGE('',*,*,#531,.F.);
#681=ORIENTED_EDGE('',*,*,#532,.F.);
#682=ORIENTED_EDGE('',*,*,#533,.F.);
#683=ORIENTED_EDGE('',*,*,#534,.F.);
#684=ORIENTED_EDGE('',*,*,#526,.T.);
#685=ORIENTED_EDGE('',*,*,#532,.T.);
#686=ORIENTED_EDGE('',*,*,#525,.T.);
#687=ORIENTED_EDGE('',*,*,#529,.T.);
#688=ORIENTED_EDGE('',*,*,#535,.F.);
#689=ORIENTED_EDGE('',*,*,#536,.F.);
#690=ORIENTED_EDGE('',*,*,#537,.F.);
#691=ORIENTED_EDGE('',*,*,#538,.T.);
#692=ORIENTED_EDGE('',*,*,#539,.F.);
#693=ORIENTED_EDGE('',*,*,#540,.T.);
#694=ORIENTED_EDGE('',*,*,#541,.T.);
#695=ORIENTED_EDGE('',*,*,#542,.T.);
#696=ORIENTED_EDGE('',*,*,#543,.F.);
#697=ORIENTED_EDGE('',*,*,#531,.T.);
#698=ORIENTED_EDGE('',*,*,#544,.T.);
#699=ORIENTED_EDGE('',*,*,#545,.T.);
#700=ORIENTED_EDGE('',*,*,#546,.T.);
#701=ORIENTED_EDGE('',*,*,#547,.T.);
#702=ORIENTED_EDGE('',*,*,#548,.T.);
#703=ORIENTED_EDGE('',*,*,#549,.T.);
#704=ORIENTED_EDGE('',*,*,#550,.T.);
#705=ORIENTED_EDGE('',*,*,#551,.T.);
#706=ORIENTED_EDGE('',*,*,#552,.T.);
#707=ORIENTED_EDGE('',*,*,#553,.T.);
#708=ORIENTED_EDGE('',*,*,#539,.T.);
#709=ORIENTED_EDGE('',*,*,#554,.T.);
#710=ORIENTED_EDGE('',*,*,#555,.T.);
#711=ORIENTED_EDGE('',*,*,#556,.T.);
#712=ORIENTED_EDGE('',*,*,#535,.T.);
#713=ORIENTED_EDGE('',*,*,#557,.T.);
#714=ORIENTED_EDGE('',*,*,#558,.T.);
#715=ORIENTED_EDGE('',*,*,#559,.T.);
#716=ORIENTED_EDGE('',*,*,#560,.T.);
#717=ORIENTED_EDGE('',*,*,#540,.F.);
#718=ORIENTED_EDGE('',*,*,#553,.F.);
#719=ORIENTED_EDGE('',*,*,#561,.F.);
#720=ORIENTED_EDGE('',*,*,#562,.T.);
#721=ORIENTED_EDGE('',*,*,#541,.F.);
#722=ORIENTED_EDGE('',*,*,#562,.F.);
#723=ORIENTED_EDGE('',*,*,#563,.F.);
#724=ORIENTED_EDGE('',*,*,#564,.T.);
#725=ORIENTED_EDGE('',*,*,#542,.F.);
#726=ORIENTED_EDGE('',*,*,#564,.F.);
#727=ORIENTED_EDGE('',*,*,#565,.F.);
#728=ORIENTED_EDGE('',*,*,#566,.F.);
#729=ORIENTED_EDGE('',*,*,#533,.T.);
#730=ORIENTED_EDGE('',*,*,#543,.T.);
#731=ORIENTED_EDGE('',*,*,#566,.T.);
#732=ORIENTED_EDGE('',*,*,#567,.T.);
#733=ORIENTED_EDGE('',*,*,#568,.T.);
#734=ORIENTED_EDGE('',*,*,#569,.F.);
#735=ORIENTED_EDGE('',*,*,#570,.F.);
#736=ORIENTED_EDGE('',*,*,#571,.T.);
#737=ORIENTED_EDGE('',*,*,#572,.F.);
#738=ORIENTED_EDGE('',*,*,#573,.T.);
#739=ORIENTED_EDGE('',*,*,#574,.F.);
#740=ORIENTED_EDGE('',*,*,#575,.T.);
#741=ORIENTED_EDGE('',*,*,#576,.F.);
#742=ORIENTED_EDGE('',*,*,#577,.F.);
#743=ORIENTED_EDGE('',*,*,#578,.T.);
#744=ORIENTED_EDGE('',*,*,#579,.F.);
#745=ORIENTED_EDGE('',*,*,#580,.T.);
#746=ORIENTED_EDGE('',*,*,#581,.F.);
#747=ORIENTED_EDGE('',*,*,#582,.T.);
#748=ORIENTED_EDGE('',*,*,#583,.F.);
#749=ORIENTED_EDGE('',*,*,#584,.T.);
#750=ORIENTED_EDGE('',*,*,#585,.F.);
#751=ORIENTED_EDGE('',*,*,#557,.F.);
#752=ORIENTED_EDGE('',*,*,#586,.T.);
#753=ORIENTED_EDGE('',*,*,#583,.T.);
#754=ORIENTED_EDGE('',*,*,#587,.F.);
#755=ORIENTED_EDGE('',*,*,#586,.F.);
#756=ORIENTED_EDGE('',*,*,#588,.F.);
#757=ORIENTED_EDGE('',*,*,#536,.T.);
#758=ORIENTED_EDGE('',*,*,#556,.F.);
#759=ORIENTED_EDGE('',*,*,#589,.F.);
#760=ORIENTED_EDGE('',*,*,#590,.F.);
#761=ORIENTED_EDGE('',*,*,#589,.T.);
#762=ORIENTED_EDGE('',*,*,#555,.F.);
#763=ORIENTED_EDGE('',*,*,#591,.F.);
#764=ORIENTED_EDGE('',*,*,#520,.T.);
#765=ORIENTED_EDGE('',*,*,#523,.T.);
#766=ORIENTED_EDGE('',*,*,#513,.T.);
#767=ORIENTED_EDGE('',*,*,#517,.T.);
#768=ORIENTED_EDGE('',*,*,#592,.F.);
#769=ORIENTED_EDGE('',*,*,#591,.T.);
#770=ORIENTED_EDGE('',*,*,#554,.F.);
#771=ORIENTED_EDGE('',*,*,#538,.F.);
#772=ORIENTED_EDGE('',*,*,#503,.T.);
#773=ORIENTED_EDGE('',*,*,#507,.T.);
#774=ORIENTED_EDGE('',*,*,#510,.T.);
#775=ORIENTED_EDGE('',*,*,#512,.T.);
#776=ORIENTED_EDGE('',*,*,#558,.F.);
#777=ORIENTED_EDGE('',*,*,#593,.T.);
#778=ORIENTED_EDGE('',*,*,#594,.F.);
#779=ORIENTED_EDGE('',*,*,#581,.T.);
#780=ORIENTED_EDGE('',*,*,#593,.F.);
#781=ORIENTED_EDGE('',*,*,#559,.F.);
#782=ORIENTED_EDGE('',*,*,#595,.T.);
#783=ORIENTED_EDGE('',*,*,#569,.T.);
#784=ORIENTED_EDGE('',*,*,#596,.F.);
#785=ORIENTED_EDGE('',*,*,#570,.T.);
#786=ORIENTED_EDGE('',*,*,#595,.F.);
#787=ORIENTED_EDGE('',*,*,#560,.F.);
#788=ORIENTED_EDGE('',*,*,#597,.T.);
#789=ORIENTED_EDGE('',*,*,#576,.T.);
#790=ORIENTED_EDGE('',*,*,#598,.F.);
#791=ORIENTED_EDGE('',*,*,#577,.T.);
#792=ORIENTED_EDGE('',*,*,#597,.F.);
#793=ORIENTED_EDGE('',*,*,#585,.T.);
#794=ORIENTED_EDGE('',*,*,#599,.T.);
#795=ORIENTED_EDGE('',*,*,#549,.F.);
#796=ORIENTED_EDGE('',*,*,#600,.F.);
#797=ORIENTED_EDGE('',*,*,#579,.T.);
#798=ORIENTED_EDGE('',*,*,#601,.T.);
#799=ORIENTED_EDGE('',*,*,#547,.F.);
#800=ORIENTED_EDGE('',*,*,#602,.F.);
#801=ORIENTED_EDGE('',*,*,#574,.T.);
#802=ORIENTED_EDGE('',*,*,#603,.T.);
#803=ORIENTED_EDGE('',*,*,#545,.F.);
#804=ORIENTED_EDGE('',*,*,#604,.F.);
#805=ORIENTED_EDGE('',*,*,#572,.T.);
#806=ORIENTED_EDGE('',*,*,#605,.T.);
#807=ORIENTED_EDGE('',*,*,#551,.F.);
#808=ORIENTED_EDGE('',*,*,#606,.F.);
#809=ORIENTED_EDGE('',*,*,#598,.T.);
#810=ORIENTED_EDGE('',*,*,#607,.T.);
#811=ORIENTED_EDGE('',*,*,#608,.T.);
#812=ORIENTED_EDGE('',*,*,#594,.T.);
#813=ORIENTED_EDGE('',*,*,#609,.T.);
#814=ORIENTED_EDGE('',*,*,#610,.T.);
#815=ORIENTED_EDGE('',*,*,#596,.T.);
#816=ORIENTED_EDGE('',*,*,#611,.T.);
#817=ORIENTED_EDGE('',*,*,#612,.T.);
#818=ORIENTED_EDGE('',*,*,#537,.T.);
#819=ORIENTED_EDGE('',*,*,#588,.T.);
#820=ORIENTED_EDGE('',*,*,#590,.T.);
#821=ORIENTED_EDGE('',*,*,#592,.T.);
#822=ORIENTED_EDGE('',*,*,#613,.T.);
#823=ORIENTED_EDGE('',*,*,#614,.T.);
#824=ORIENTED_EDGE('',*,*,#615,.T.);
#825=ORIENTED_EDGE('',*,*,#616,.T.);
#826=ORIENTED_EDGE('',*,*,#617,.F.);
#827=ORIENTED_EDGE('',*,*,#618,.T.);
#828=ORIENTED_EDGE('',*,*,#616,.F.);
#829=ORIENTED_EDGE('',*,*,#618,.F.);
#830=ORIENTED_EDGE('',*,*,#617,.T.);
#831=ORIENTED_EDGE('',*,*,#619,.F.);
#832=ORIENTED_EDGE('',*,*,#620,.T.);
#833=ORIENTED_EDGE('',*,*,#621,.F.);
#834=ORIENTED_EDGE('',*,*,#620,.F.);
#835=ORIENTED_EDGE('',*,*,#622,.F.);
#836=ORIENTED_EDGE('',*,*,#623,.T.);
#837=ORIENTED_EDGE('',*,*,#613,.F.);
#838=ORIENTED_EDGE('',*,*,#623,.F.);
#839=ORIENTED_EDGE('',*,*,#622,.T.);
#840=ORIENTED_EDGE('',*,*,#619,.T.);
#841=ORIENTED_EDGE('',*,*,#587,.T.);
#842=ORIENTED_EDGE('',*,*,#624,.T.);
#843=ORIENTED_EDGE('',*,*,#625,.T.);
#844=ORIENTED_EDGE('',*,*,#626,.F.);
#845=ORIENTED_EDGE('',*,*,#627,.T.);
#846=ORIENTED_EDGE('',*,*,#628,.F.);
#847=ORIENTED_EDGE('',*,*,#627,.F.);
#848=ORIENTED_EDGE('',*,*,#629,.F.);
#849=ORIENTED_EDGE('',*,*,#630,.T.);
#850=ORIENTED_EDGE('',*,*,#615,.F.);
#851=ORIENTED_EDGE('',*,*,#630,.F.);
#852=ORIENTED_EDGE('',*,*,#629,.T.);
#853=ORIENTED_EDGE('',*,*,#626,.T.);
#854=ORIENTED_EDGE('',*,*,#621,.T.);
#855=ORIENTED_EDGE('',*,*,#631,.F.);
#856=ORIENTED_EDGE('',*,*,#632,.T.);
#857=ORIENTED_EDGE('',*,*,#614,.F.);
#858=ORIENTED_EDGE('',*,*,#632,.F.);
#859=ORIENTED_EDGE('',*,*,#631,.T.);
#860=ORIENTED_EDGE('',*,*,#633,.T.);
#861=ORIENTED_EDGE('',*,*,#634,.T.);
#862=ORIENTED_EDGE('',*,*,#611,.F.);
#863=ORIENTED_EDGE('',*,*,#568,.F.);
#864=ORIENTED_EDGE('',*,*,#606,.T.);
#865=ORIENTED_EDGE('',*,*,#550,.F.);
#866=ORIENTED_EDGE('',*,*,#599,.F.);
#867=ORIENTED_EDGE('',*,*,#584,.F.);
#868=ORIENTED_EDGE('',*,*,#625,.F.);
#869=ORIENTED_EDGE('',*,*,#635,.F.);
#870=ORIENTED_EDGE('',*,*,#501,.T.);
#871=ORIENTED_EDGE('',*,*,#511,.T.);
#872=ORIENTED_EDGE('',*,*,#508,.T.);
#873=ORIENTED_EDGE('',*,*,#505,.T.);
#874=ORIENTED_EDGE('',*,*,#636,.T.);
#875=ORIENTED_EDGE('',*,*,#635,.T.);
#876=ORIENTED_EDGE('',*,*,#624,.F.);
#877=ORIENTED_EDGE('',*,*,#582,.F.);
#878=ORIENTED_EDGE('',*,*,#600,.T.);
#879=ORIENTED_EDGE('',*,*,#548,.F.);
#880=ORIENTED_EDGE('',*,*,#601,.F.);
#881=ORIENTED_EDGE('',*,*,#578,.F.);
#882=ORIENTED_EDGE('',*,*,#610,.F.);
#883=ORIENTED_EDGE('',*,*,#637,.F.);
#884=ORIENTED_EDGE('',*,*,#521,.T.);
#885=ORIENTED_EDGE('',*,*,#518,.T.);
#886=ORIENTED_EDGE('',*,*,#515,.T.);
#887=ORIENTED_EDGE('',*,*,#524,.T.);
#888=ORIENTED_EDGE('',*,*,#638,.T.);
#889=ORIENTED_EDGE('',*,*,#637,.T.);
#890=ORIENTED_EDGE('',*,*,#609,.F.);
#891=ORIENTED_EDGE('',*,*,#580,.F.);
#892=ORIENTED_EDGE('',*,*,#602,.T.);
#893=ORIENTED_EDGE('',*,*,#546,.F.);
#894=ORIENTED_EDGE('',*,*,#603,.F.);
#895=ORIENTED_EDGE('',*,*,#573,.F.);
#896=ORIENTED_EDGE('',*,*,#608,.F.);
#897=ORIENTED_EDGE('',*,*,#639,.F.);
#898=ORIENTED_EDGE('',*,*,#534,.T.);
#899=ORIENTED_EDGE('',*,*,#567,.F.);
#900=ORIENTED_EDGE('',*,*,#565,.T.);
#901=ORIENTED_EDGE('',*,*,#563,.T.);
#902=ORIENTED_EDGE('',*,*,#561,.T.);
#903=ORIENTED_EDGE('',*,*,#552,.F.);
#904=ORIENTED_EDGE('',*,*,#605,.F.);
#905=ORIENTED_EDGE('',*,*,#571,.F.);
#906=ORIENTED_EDGE('',*,*,#612,.F.);
#907=ORIENTED_EDGE('',*,*,#634,.F.);
#908=ORIENTED_EDGE('',*,*,#640,.T.);
#909=ORIENTED_EDGE('',*,*,#639,.T.);
#910=ORIENTED_EDGE('',*,*,#607,.F.);
#911=ORIENTED_EDGE('',*,*,#575,.F.);
#912=ORIENTED_EDGE('',*,*,#604,.T.);
#913=ORIENTED_EDGE('',*,*,#544,.F.);
#914=ORIENTED_EDGE('',*,*,#530,.T.);
#915=ORIENTED_EDGE('',*,*,#527,.T.);
#916=ORIENTED_EDGE('',*,*,#628,.T.);
#917=ORIENTED_EDGE('',*,*,#640,.F.);
#918=ORIENTED_EDGE('',*,*,#633,.F.);
#919=ORIENTED_EDGE('',*,*,#636,.F.);
#920=ORIENTED_EDGE('',*,*,#638,.F.);
#921=PLANE('',#1029);
#922=PLANE('',#1030);
#923=PLANE('',#1031);
#924=PLANE('',#1032);
#925=PLANE('',#1033);
#926=PLANE('',#1034);
#927=PLANE('',#1035);
#928=PLANE('',#1036);
#929=PLANE('',#1037);
#930=PLANE('',#1038);
#931=PLANE('',#1039);
#932=PLANE('',#1040);
#933=PLANE('',#1041);
#934=PLANE('',#1050);
#935=PLANE('',#1051);
#936=PLANE('',#1052);
#937=PLANE('',#1053);
#938=PLANE('',#1054);
#939=PLANE('',#1058);
#940=PLANE('',#1062);
#941=PLANE('',#1065);
#942=PLANE('',#1070);
#943=PLANE('',#1071);
#944=PLANE('',#1072);
#945=PLANE('',#1083);
#946=PLANE('',#1084);
#947=PLANE('',#1085);
#948=PLANE('',#1086);
#949=PLANE('',#1093);
#950=PLANE('',#1099);
#951=PLANE('',#1100);
#952=PLANE('',#1106);
#953=PLANE('',#1107);
#954=PLANE('',#1110);
#955=PLANE('',#1111);
#956=PLANE('',#1112);
#957=PLANE('',#1113);
#958=PLANE('',#1114);
#959=PLANE('',#1115);
#960=PLANE('',#1116);
#961=ADVANCED_FACE('',(#77),#921,.F.);
#962=ADVANCED_FACE('',(#78),#922,.F.);
#963=ADVANCED_FACE('',(#79),#923,.F.);
#964=ADVANCED_FACE('',(#80),#924,.F.);
#965=ADVANCED_FACE('',(#81),#925,.F.);
#966=ADVANCED_FACE('',(#82),#926,.F.);
#967=ADVANCED_FACE('',(#83),#927,.F.);
#968=ADVANCED_FACE('',(#84),#928,.F.);
#969=ADVANCED_FACE('',(#85),#929,.F.);
#970=ADVANCED_FACE('',(#86),#930,.F.);
#971=ADVANCED_FACE('',(#87),#931,.F.);
#972=ADVANCED_FACE('',(#88),#932,.T.);
#973=ADVANCED_FACE('',(#89,#29,#30,#31,#32),#933,.T.);
#974=ADVANCED_FACE('',(#90),#934,.F.);
#975=ADVANCED_FACE('',(#91),#935,.F.);
#976=ADVANCED_FACE('',(#92),#936,.F.);
#977=ADVANCED_FACE('',(#93),#937,.T.);
#978=ADVANCED_FACE('',(#94),#938,.F.);
#979=ADVANCED_FACE('',(#95),#939,.F.);
#980=ADVANCED_FACE('',(#96),#940,.F.);
#981=ADVANCED_FACE('',(#97),#941,.F.);
#982=ADVANCED_FACE('',(#98),#15,.F.);
#983=ADVANCED_FACE('',(#99),#942,.T.);
#984=ADVANCED_FACE('',(#100,#33),#943,.T.);
#985=ADVANCED_FACE('',(#101,#34),#944,.T.);
#986=ADVANCED_FACE('',(#102),#16,.F.);
#987=ADVANCED_FACE('',(#103),#17,.F.);
#988=ADVANCED_FACE('',(#104),#18,.F.);
#989=ADVANCED_FACE('',(#105),#19,.T.);
#990=ADVANCED_FACE('',(#106),#20,.T.);
#991=ADVANCED_FACE('',(#107),#21,.T.);
#992=ADVANCED_FACE('',(#108),#22,.T.);
#993=ADVANCED_FACE('',(#109),#945,.T.);
#994=ADVANCED_FACE('',(#110),#946,.T.);
#995=ADVANCED_FACE('',(#111),#947,.T.);
#996=ADVANCED_FACE('',(#112,#35,#36,#37,#38),#948,.T.);
#997=ADVANCED_FACE('',(#113),#23,.T.);
#998=ADVANCED_FACE('',(#114),#949,.T.);
#999=ADVANCED_FACE('',(#115),#24,.F.);
#1000=ADVANCED_FACE('',(#116),#25,.T.);
#1001=ADVANCED_FACE('',(#117,#39),#950,.T.);
#1002=ADVANCED_FACE('',(#118),#951,.T.);
#1003=ADVANCED_FACE('',(#119),#26,.F.);
#1004=ADVANCED_FACE('',(#120),#27,.T.);
#1005=ADVANCED_FACE('',(#121,#40),#952,.T.);
#1006=ADVANCED_FACE('',(#122),#953,.T.);
#1007=ADVANCED_FACE('',(#123),#28,.T.);
#1008=ADVANCED_FACE('',(#124),#954,.T.);
#1009=ADVANCED_FACE('',(#125,#41),#955,.T.);
#1010=ADVANCED_FACE('',(#126,#42),#956,.T.);
#1011=ADVANCED_FACE('',(#127),#957,.T.);
#1012=ADVANCED_FACE('',(#128),#958,.T.);
#1013=ADVANCED_FACE('',(#129),#959,.T.);
#1014=ADVANCED_FACE('',(#130),#960,.F.);
#1015=CLOSED_SHELL('',(#961,#962,#963,#964,#965,#966,#967,#968,#969,#970,
#971,#972,#973,#974,#975,#976,#977,#978,#979,#980,#981,#982,#983,#984,#985,
#986,#987,#988,#989,#990,#991,#992,#993,#994,#995,#996,#997,#998,#999,#1000,
#1001,#1002,#1003,#1004,#1005,#1006,#1007,#1008,#1009,#1010,#1011,#1012,
#1013,#1014));
#1016=DERIVED_UNIT_ELEMENT(#1018,1.);
#1017=DERIVED_UNIT_ELEMENT(#1691,-3.);
#1018=(
MASS_UNIT()
NAMED_UNIT(*)
SI_UNIT(.KILO.,.GRAM.)
);
#1019=DERIVED_UNIT((#1016,#1017));
#1020=MEASURE_REPRESENTATION_ITEM('density measure',
POSITIVE_RATIO_MEASURE(7850.),#1019);
#1021=PROPERTY_DEFINITION_REPRESENTATION(#1026,#1023);
#1022=PROPERTY_DEFINITION_REPRESENTATION(#1027,#1024);
#1023=REPRESENTATION('material name',(#1025),#1688);
#1024=REPRESENTATION('density',(#1020),#1688);
#1025=DESCRIPTIVE_REPRESENTATION_ITEM('Steel','Steel');
#1026=PROPERTY_DEFINITION('material property','material name',#1698);
#1027=PROPERTY_DEFINITION('material property','density of part',#1698);
#1028=AXIS2_PLACEMENT_3D('',#1401,#1117,#1118);
#1029=AXIS2_PLACEMENT_3D('',#1402,#1119,#1120);
#1030=AXIS2_PLACEMENT_3D('',#1411,#1125,#1126);
#1031=AXIS2_PLACEMENT_3D('',#1417,#1130,#1131);
#1032=AXIS2_PLACEMENT_3D('',#1423,#1135,#1136);
#1033=AXIS2_PLACEMENT_3D('',#1426,#1139,#1140);
#1034=AXIS2_PLACEMENT_3D('',#1435,#1145,#1146);
#1035=AXIS2_PLACEMENT_3D('',#1441,#1150,#1151);
#1036=AXIS2_PLACEMENT_3D('',#1447,#1155,#1156);
#1037=AXIS2_PLACEMENT_3D('',#1450,#1159,#1160);
#1038=AXIS2_PLACEMENT_3D('',#1459,#1165,#1166);
#1039=AXIS2_PLACEMENT_3D('',#1465,#1170,#1171);
#1040=AXIS2_PLACEMENT_3D('',#1471,#1175,#1176);
#1041=AXIS2_PLACEMENT_3D('',#1489,#1186,#1187);
#1042=AXIS2_PLACEMENT_3D('',#1493,#1189,#1190);
#1043=AXIS2_PLACEMENT_3D('',#1497,#1192,#1193);
#1044=AXIS2_PLACEMENT_3D('',#1501,#1195,#1196);
#1045=AXIS2_PLACEMENT_3D('',#1505,#1198,#1199);
#1046=AXIS2_PLACEMENT_3D('',#1515,#1205,#1206);
#1047=AXIS2_PLACEMENT_3D('',#1517,#1207,#1208);
#1048=AXIS2_PLACEMENT_3D('',#1519,#1209,#1210);
#1049=AXIS2_PLACEMENT_3D('',#1521,#1211,#1212);
#1050=AXIS2_PLACEMENT_3D('',#1522,#1213,#1214);
#1051=AXIS2_PLACEMENT_3D('',#1526,#1217,#1218);
#1052=AXIS2_PLACEMENT_3D('',#1530,#1221,#1222);
#1053=AXIS2_PLACEMENT_3D('',#1534,#1225,#1226);
#1054=AXIS2_PLACEMENT_3D('',#1536,#1228,#1229);
#1055=AXIS2_PLACEMENT_3D('',#1541,#1231,#1232);
#1056=AXIS2_PLACEMENT_3D('',#1543,#1233,#1234);
#1057=AXIS2_PLACEMENT_3D('',#1546,#1236,#1237);
#1058=AXIS2_PLACEMENT_3D('',#1547,#1238,#1239);
#1059=AXIS2_PLACEMENT_3D('',#1552,#1241,#1242);
#1060=AXIS2_PLACEMENT_3D('',#1556,#1244,#1245);
#1061=AXIS2_PLACEMENT_3D('',#1557,#1246,#1247);
#1062=AXIS2_PLACEMENT_3D('',#1558,#1248,#1249);
#1063=AXIS2_PLACEMENT_3D('',#1563,#1251,#1252);
#1064=AXIS2_PLACEMENT_3D('',#1566,#1254,#1255);
#1065=AXIS2_PLACEMENT_3D('',#1567,#1256,#1257);
#1066=AXIS2_PLACEMENT_3D('',#1572,#1259,#1260);
#1067=AXIS2_PLACEMENT_3D('',#1575,#1262,#1263);
#1068=AXIS2_PLACEMENT_3D('',#1576,#1264,#1265);
#1069=AXIS2_PLACEMENT_3D('',#1578,#1267,#1268);
#1070=AXIS2_PLACEMENT_3D('',#1579,#1269,#1270);
#1071=AXIS2_PLACEMENT_3D('',#1583,#1273,#1274);
#1072=AXIS2_PLACEMENT_3D('',#1587,#1277,#1278);
#1073=AXIS2_PLACEMENT_3D('',#1589,#1280,#1281);
#1074=AXIS2_PLACEMENT_3D('',#1591,#1283,#1284);
#1075=AXIS2_PLACEMENT_3D('',#1592,#1285,#1286);
#1076=AXIS2_PLACEMENT_3D('',#1594,#1288,#1289);
#1077=AXIS2_PLACEMENT_3D('',#1595,#1290,#1291);
#1078=AXIS2_PLACEMENT_3D('',#1597,#1293,#1294);
#1079=AXIS2_PLACEMENT_3D('',#1598,#1295,#1296);
#1080=AXIS2_PLACEMENT_3D('',#1601,#1299,#1300);
#1081=AXIS2_PLACEMENT_3D('',#1604,#1303,#1304);
#1082=AXIS2_PLACEMENT_3D('',#1607,#1307,#1308);
#1083=AXIS2_PLACEMENT_3D('',#1610,#1311,#1312);
#1084=AXIS2_PLACEMENT_3D('',#1614,#1315,#1316);
#1085=AXIS2_PLACEMENT_3D('',#1618,#1319,#1320);
#1086=AXIS2_PLACEMENT_3D('',#1622,#1323,#1324);
#1087=AXIS2_PLACEMENT_3D('',#1624,#1325,#1326);
#1088=AXIS2_PLACEMENT_3D('',#1626,#1327,#1328);
#1089=AXIS2_PLACEMENT_3D('',#1628,#1329,#1330);
#1090=AXIS2_PLACEMENT_3D('',#1630,#1331,#1332);
#1091=AXIS2_PLACEMENT_3D('',#1631,#1333,#1334);
#1092=AXIS2_PLACEMENT_3D('',#1633,#1335,#1336);
#1093=AXIS2_PLACEMENT_3D('',#1635,#1338,#1339);
#1094=AXIS2_PLACEMENT_3D('',#1636,#1340,#1341);
#1095=AXIS2_PLACEMENT_3D('',#1638,#1342,#1343);
#1096=AXIS2_PLACEMENT_3D('',#1641,#1345,#1346);
#1097=AXIS2_PLACEMENT_3D('',#1642,#1347,#1348);
#1098=AXIS2_PLACEMENT_3D('',#1644,#1349,#1350);
#1099=AXIS2_PLACEMENT_3D('',#1646,#1352,#1353);
#1100=AXIS2_PLACEMENT_3D('',#1647,#1354,#1355);
#1101=AXIS2_PLACEMENT_3D('',#1651,#1358,#1359);
#1102=AXIS2_PLACEMENT_3D('',#1653,#1360,#1361);
#1103=AXIS2_PLACEMENT_3D('',#1656,#1363,#1364);
#1104=AXIS2_PLACEMENT_3D('',#1657,#1365,#1366);
#1105=AXIS2_PLACEMENT_3D('',#1659,#1367,#1368);
#1106=AXIS2_PLACEMENT_3D('',#1661,#1370,#1371);
#1107=AXIS2_PLACEMENT_3D('',#1662,#1372,#1373);
#1108=AXIS2_PLACEMENT_3D('',#1663,#1374,#1375);
#1109=AXIS2_PLACEMENT_3D('',#1665,#1376,#1377);
#1110=AXIS2_PLACEMENT_3D('',#1667,#1379,#1380);
#1111=AXIS2_PLACEMENT_3D('',#1668,#1381,#1382);
#1112=AXIS2_PLACEMENT_3D('',#1674,#1386,#1387);
#1113=AXIS2_PLACEMENT_3D('',#1678,#1390,#1391);
#1114=AXIS2_PLACEMENT_3D('',#1682,#1394,#1395);
#1115=AXIS2_PLACEMENT_3D('',#1684,#1397,#1398);
#1116=AXIS2_PLACEMENT_3D('',#1685,#1399,#1400);
#1117=DIRECTION('axis',(0.,0.,1.));
#1118=DIRECTION('refdir',(1.,0.,0.));
#1119=DIRECTION('center_axis',(1.,0.,0.));
#1120=DIRECTION('ref_axis',(0.,0.,-1.));
#1121=DIRECTION('',(0.,0.,-1.));
#1122=DIRECTION('',(0.,1.,0.));
#1123=DIRECTION('',(0.,0.,1.));
#1124=DIRECTION('',(0.,1.,0.));
#1125=DIRECTION('center_axis',(0.,0.,1.));
#1126=DIRECTION('ref_axis',(1.,0.,0.));
#1127=DIRECTION('',(1.,0.,0.));
#1128=DIRECTION('',(0.,1.,0.));
#1129=DIRECTION('',(-1.,0.,0.));
#1130=DIRECTION('center_axis',(-1.,0.,0.));
#1131=DIRECTION('ref_axis',(0.,0.,1.));
#1132=DIRECTION('',(0.,0.,1.));
#1133=DIRECTION('',(0.,1.,0.));
#1134=DIRECTION('',(0.,0.,-1.));
#1135=DIRECTION('center_axis',(0.,0.,-1.));
#1136=DIRECTION('ref_axis',(-1.,0.,0.));
#1137=DIRECTION('',(-1.,0.,0.));
#1138=DIRECTION('',(1.,0.,0.));
#1139=DIRECTION('center_axis',(0.,1.,0.));
#1140=DIRECTION('ref_axis',(0.,0.,1.));
#1141=DIRECTION('',(0.,0.,-1.));
#1142=DIRECTION('',(1.,0.,0.));
#1143=DIRECTION('',(0.,0.,1.));
#1144=DIRECTION('',(1.,0.,0.));
#1145=DIRECTION('center_axis',(0.,0.,-1.));
#1146=DIRECTION('ref_axis',(0.,1.,0.));
#1147=DIRECTION('',(0.,-1.,0.));
#1148=DIRECTION('',(0.,1.,0.));
#1149=DIRECTION('',(1.,0.,0.));
#1150=DIRECTION('center_axis',(0.,-1.,0.));
#1151=DIRECTION('ref_axis',(0.,0.,-1.));
#1152=DIRECTION('',(0.,0.,1.));
#1153=DIRECTION('',(0.,0.,-1.));
#1154=DIRECTION('',(1.,0.,0.));
#1155=DIRECTION('center_axis',(0.,0.,1.));
#1156=DIRECTION('ref_axis',(0.,-1.,0.));
#1157=DIRECTION('',(0.,1.,0.));
#1158=DIRECTION('',(0.,-1.,0.));
#1159=DIRECTION('center_axis',(0.,0.,-1.));
#1160=DIRECTION('ref_axis',(0.,-1.,0.));
#1161=DIRECTION('',(0.,1.,0.));
#1162=DIRECTION('',(-1.,0.,0.));
#1163=DIRECTION('',(0.,-1.,0.));
#1164=DIRECTION('',(-1.,0.,0.));
#1165=DIRECTION('center_axis',(0.,1.,0.));
#1166=DIRECTION('ref_axis',(0.,0.,-1.));
#1167=DIRECTION('',(0.,0.,1.));
#1168=DIRECTION('',(0.,0.,-1.));
#1169=DIRECTION('',(1.,0.,0.));
#1170=DIRECTION('center_axis',(0.,-1.,0.));
#1171=DIRECTION('ref_axis',(0.,0.,1.));
#1172=DIRECTION('',(0.,0.,-1.));
#1173=DIRECTION('',(-1.,0.,0.));
#1174=DIRECTION('',(0.,0.,1.));
#1175=DIRECTION('center_axis',(-1.,0.,0.));
#1176=DIRECTION('ref_axis',(0.,-1.,0.));
#1177=DIRECTION('',(0.,-1.,0.));
#1178=DIRECTION('',(0.,0.,1.));
#1179=DIRECTION('',(0.,1.,0.));
#1180=DIRECTION('',(0.,0.,1.));
#1181=DIRECTION('',(0.,-1.,0.));
#1182=DIRECTION('',(0.,0.,-1.));
#1183=DIRECTION('',(0.,1.,0.));
#1184=DIRECTION('',(0.,0.,1.));
#1185=DIRECTION('',(0.,-1.,0.));
#1186=DIRECTION('center_axis',(0.,0.,1.));
#1187=DIRECTION('ref_axis',(-1.,0.,0.));
#1188=DIRECTION('',(0.,1.,0.));
#1189=DIRECTION('center_axis',(0.,0.,1.));
#1190=DIRECTION('ref_axis',(-1.,0.,0.));
#1191=DIRECTION('',(-1.,0.,0.));
#1192=DIRECTION('center_axis',(0.,0.,1.));
#1193=DIRECTION('ref_axis',(-1.,0.,0.));
#1194=DIRECTION('',(0.,-1.,0.));
#1195=DIRECTION('center_axis',(0.,0.,1.));
#1196=DIRECTION('ref_axis',(-1.,0.,0.));
#1197=DIRECTION('',(1.,0.,0.));
#1198=DIRECTION('center_axis',(0.,0.,1.));
#1199=DIRECTION('ref_axis',(-1.,0.,0.));
#1200=DIRECTION('',(0.,1.,0.));
#1201=DIRECTION('',(-1.,0.,0.));
#1202=DIRECTION('',(-1.,0.,0.));
#1203=DIRECTION('',(0.,1.,0.));
#1204=DIRECTION('',(1.,0.,0.));
#1205=DIRECTION('center_axis',(0.,0.,-1.));
#1206=DIRECTION('ref_axis',(-1.,0.,0.));
#1207=DIRECTION('center_axis',(0.,0.,-1.));
#1208=DIRECTION('ref_axis',(-1.,0.,0.));
#1209=DIRECTION('center_axis',(0.,0.,-1.));
#1210=DIRECTION('ref_axis',(-1.,0.,0.));
#1211=DIRECTION('center_axis',(0.,0.,-1.));
#1212=DIRECTION('ref_axis',(-1.,0.,0.));
#1213=DIRECTION('center_axis',(0.,-1.,0.));
#1214=DIRECTION('ref_axis',(0.,0.,1.));
#1215=DIRECTION('',(0.,0.,1.));
#1216=DIRECTION('',(-1.,0.,0.));
#1217=DIRECTION('center_axis',(0.,0.,-1.));
#1218=DIRECTION('ref_axis',(0.,-1.,0.));
#1219=DIRECTION('',(0.,-1.,0.));
#1220=DIRECTION('',(-1.,0.,0.));
#1221=DIRECTION('center_axis',(0.,1.,0.));
#1222=DIRECTION('ref_axis',(0.,0.,-1.));
#1223=DIRECTION('',(0.,0.,-1.));
#1224=DIRECTION('',(1.,0.,0.));
#1225=DIRECTION('center_axis',(0.,0.,1.));
#1226=DIRECTION('ref_axis',(-1.,0.,0.));
#1227=DIRECTION('',(0.,1.,0.));
#1228=DIRECTION('center_axis',(0.,0.,1.));
#1229=DIRECTION('ref_axis',(-1.,0.,0.));
#1230=DIRECTION('',(1.,0.,0.));
#1231=DIRECTION('center_axis',(0.,0.,-1.));
#1232=DIRECTION('ref_axis',(-1.,0.,0.));
#1233=DIRECTION('center_axis',(0.,0.,-1.));
#1234=DIRECTION('ref_axis',(-1.,0.,0.));
#1235=DIRECTION('',(0.,1.,0.));
#1236=DIRECTION('center_axis',(0.,0.,1.));
#1237=DIRECTION('ref_axis',(-1.,0.,0.));
#1238=DIRECTION('center_axis',(0.,0.,1.));
#1239=DIRECTION('ref_axis',(-1.,0.,0.));
#1240=DIRECTION('',(-1.,0.,0.));
#1241=DIRECTION('center_axis',(0.,0.,1.));
#1242=DIRECTION('ref_axis',(-1.,0.,0.));
#1243=DIRECTION('',(0.,1.,0.));
#1244=DIRECTION('center_axis',(0.,0.,-1.));
#1245=DIRECTION('ref_axis',(-1.,0.,0.));
#1246=DIRECTION('center_axis',(0.,0.,-1.));
#1247=DIRECTION('ref_axis',(-1.,0.,0.));
#1248=DIRECTION('center_axis',(0.,0.,1.));
#1249=DIRECTION('ref_axis',(-1.,0.,0.));
#1250=DIRECTION('',(0.,-1.,0.));
#1251=DIRECTION('center_axis',(0.,0.,1.));
#1252=DIRECTION('ref_axis',(-1.,0.,0.));
#1253=DIRECTION('',(-1.,0.,0.));
#1254=DIRECTION('center_axis',(0.,0.,-1.));
#1255=DIRECTION('ref_axis',(-1.,0.,0.));
#1256=DIRECTION('center_axis',(0.,0.,1.));
#1257=DIRECTION('ref_axis',(-1.,0.,0.));
#1258=DIRECTION('',(0.,-1.,0.));
#1259=DIRECTION('center_axis',(0.,0.,-1.));
#1260=DIRECTION('ref_axis',(-1.,0.,0.));
#1261=DIRECTION('',(1.,0.,0.));
#1262=DIRECTION('center_axis',(0.,0.,1.));
#1263=DIRECTION('ref_axis',(-1.,0.,0.));
#1264=DIRECTION('center_axis',(0.,0.,1.));
#1265=DIRECTION('ref_axis',(-1.,0.,0.));
#1266=DIRECTION('',(0.,0.,-1.));
#1267=DIRECTION('center_axis',(0.,0.,1.));
#1268=DIRECTION('ref_axis',(-1.,0.,0.));
#1269=DIRECTION('center_axis',(0.,-1.,0.));
#1270=DIRECTION('ref_axis',(1.,0.,0.));
#1271=DIRECTION('',(-1.,0.,0.));
#1272=DIRECTION('',(0.,0.,1.));
#1273=DIRECTION('center_axis',(1.,0.,0.));
#1274=DIRECTION('ref_axis',(0.,1.,0.));
#1275=DIRECTION('',(0.,-1.,0.));
#1276=DIRECTION('',(0.,0.,1.));
#1277=DIRECTION('center_axis',(0.,1.,0.));
#1278=DIRECTION('ref_axis',(-1.,0.,0.));
#1279=DIRECTION('',(1.,0.,0.));
#1280=DIRECTION('center_axis',(0.,0.,1.));
#1281=DIRECTION('ref_axis',(-1.,0.,0.));
#1282=DIRECTION('',(0.,0.,-1.));
#1283=DIRECTION('center_axis',(0.,0.,1.));
#1284=DIRECTION('ref_axis',(-1.,0.,0.));
#1285=DIRECTION('center_axis',(0.,0.,1.));
#1286=DIRECTION('ref_axis',(-1.,0.,0.));
#1287=DIRECTION('',(0.,0.,-1.));
#1288=DIRECTION('center_axis',(0.,0.,1.));
#1289=DIRECTION('ref_axis',(-1.,0.,0.));
#1290=DIRECTION('center_axis',(0.,0.,1.));
#1291=DIRECTION('ref_axis',(-1.,0.,0.));
#1292=DIRECTION('',(0.,0.,-1.));
#1293=DIRECTION('center_axis',(0.,0.,1.));
#1294=DIRECTION('ref_axis',(-1.,0.,0.));
#1295=DIRECTION('center_axis',(0.,0.,1.));
#1296=DIRECTION('ref_axis',(-1.,0.,0.));
#1297=DIRECTION('',(0.,0.,1.));
#1298=DIRECTION('',(0.,0.,1.));
#1299=DIRECTION('center_axis',(0.,0.,1.));
#1300=DIRECTION('ref_axis',(-1.,0.,0.));
#1301=DIRECTION('',(0.,0.,1.));
#1302=DIRECTION('',(0.,0.,1.));
#1303=DIRECTION('center_axis',(0.,0.,1.));
#1304=DIRECTION('ref_axis',(0.707106781186548,0.707106781186547,0.));
#1305=DIRECTION('',(0.,0.,1.));
#1306=DIRECTION('',(0.,0.,1.));
#1307=DIRECTION('center_axis',(0.,0.,1.));
#1308=DIRECTION('ref_axis',(0.707106781186547,-0.707106781186548,0.));
#1309=DIRECTION('',(0.,0.,1.));
#1310=DIRECTION('',(0.,0.,1.));
#1311=DIRECTION('center_axis',(0.,0.,1.));
#1312=DIRECTION('ref_axis',(1.,0.,0.));
#1313=DIRECTION('',(0.,1.,0.));
#1314=DIRECTION('',(-1.,0.,0.));
#1315=DIRECTION('center_axis',(0.,0.,1.));
#1316=DIRECTION('ref_axis',(1.,0.,0.));
#1317=DIRECTION('',(-1.,0.,0.));
#1318=DIRECTION('',(0.,-1.,0.));
#1319=DIRECTION('center_axis',(0.,0.,1.));
#1320=DIRECTION('ref_axis',(1.,0.,0.));
#1321=DIRECTION('',(1.,0.,0.));
#1322=DIRECTION('',(0.,1.,0.));
#1323=DIRECTION('center_axis',(0.,0.,1.));
#1324=DIRECTION('ref_axis',(1.,0.,0.));
#1325=DIRECTION('center_axis',(0.,0.,-1.));
#1326=DIRECTION('ref_axis',(-1.,0.,0.));
#1327=DIRECTION('center_axis',(0.,0.,-1.));
#1328=DIRECTION('ref_axis',(-1.,0.,0.));
#1329=DIRECTION('center_axis',(0.,0.,-1.));
#1330=DIRECTION('ref_axis',(-1.,0.,0.));
#1331=DIRECTION('center_axis',(0.,0.,-1.));
#1332=DIRECTION('ref_axis',(-1.,0.,0.));
#1333=DIRECTION('center_axis',(0.,0.,1.));
#1334=DIRECTION('ref_axis',(-1.,0.,0.));
#1335=DIRECTION('center_axis',(0.,0.,1.));
#1336=DIRECTION('ref_axis',(-1.,0.,0.));
#1337=DIRECTION('',(0.,0.,-1.));
#1338=DIRECTION('center_axis',(0.,0.,1.));
#1339=DIRECTION('ref_axis',(-1.,0.,0.));
#1340=DIRECTION('center_axis',(0.,0.,1.));
#1341=DIRECTION('ref_axis',(-1.,0.,0.));
#1342=DIRECTION('center_axis',(0.,0.,-1.));
#1343=DIRECTION('ref_axis',(-1.,0.,0.));
#1344=DIRECTION('',(0.,0.,-1.));
#1345=DIRECTION('center_axis',(0.,0.,1.));
#1346=DIRECTION('ref_axis',(-1.,0.,0.));
#1347=DIRECTION('center_axis',(0.,0.,1.));
#1348=DIRECTION('ref_axis',(-1.,0.,0.));
#1349=DIRECTION('center_axis',(0.,0.,1.));
#1350=DIRECTION('ref_axis',(-1.,0.,0.));
#1351=DIRECTION('',(0.,0.,-1.));
#1352=DIRECTION('center_axis',(0.,0.,1.));
#1353=DIRECTION('ref_axis',(-1.,0.,0.));
#1354=DIRECTION('center_axis',(0.,0.,1.));
#1355=DIRECTION('ref_axis',(1.,0.,0.));
#1356=DIRECTION('',(0.,-1.,0.));
#1357=DIRECTION('',(1.,0.,0.));
#1358=DIRECTION('center_axis',(0.,0.,1.));
#1359=DIRECTION('ref_axis',(-1.,0.,0.));
#1360=DIRECTION('center_axis',(0.,0.,-1.));
#1361=DIRECTION('ref_axis',(-1.,0.,0.));
#1362=DIRECTION('',(0.,0.,-1.));
#1363=DIRECTION('center_axis',(0.,0.,1.));
#1364=DIRECTION('ref_axis',(-1.,0.,0.));
#1365=DIRECTION('center_axis',(0.,0.,1.));
#1366=DIRECTION('ref_axis',(-1.,0.,0.));
#1367=DIRECTION('center_axis',(0.,0.,1.));
#1368=DIRECTION('ref_axis',(-1.,0.,0.));
#1369=DIRECTION('',(0.,0.,-1.));
#1370=DIRECTION('center_axis',(0.,0.,1.));
#1371=DIRECTION('ref_axis',(-1.,0.,0.));
#1372=DIRECTION('center_axis',(0.,0.,1.));
#1373=DIRECTION('ref_axis',(1.,0.,0.));
#1374=DIRECTION('center_axis',(0.,0.,1.));
#1375=DIRECTION('ref_axis',(-1.,0.,0.));
#1376=DIRECTION('center_axis',(0.,0.,1.));
#1377=DIRECTION('ref_axis',(-1.,0.,0.));
#1378=DIRECTION('',(0.,0.,-1.));
#1379=DIRECTION('center_axis',(0.,0.,1.));
#1380=DIRECTION('ref_axis',(-1.,0.,0.));
#1381=DIRECTION('center_axis',(0.,-1.,0.));
#1382=DIRECTION('ref_axis',(1.,0.,0.));
#1383=DIRECTION('',(1.,0.,0.));
#1384=DIRECTION('',(0.,0.,1.));
#1385=DIRECTION('',(0.,0.,1.));
#1386=DIRECTION('center_axis',(-1.,0.,0.));
#1387=DIRECTION('ref_axis',(0.,-1.,0.));
#1388=DIRECTION('',(0.,-1.,0.));
#1389=DIRECTION('',(0.,0.,1.));
#1390=DIRECTION('center_axis',(0.,1.,0.));
#1391=DIRECTION('ref_axis',(-1.,0.,0.));
#1392=DIRECTION('',(-1.,0.,0.));
#1393=DIRECTION('',(0.,0.,1.));
#1394=DIRECTION('center_axis',(1.,0.,0.));
#1395=DIRECTION('ref_axis',(0.,1.,0.));
#1396=DIRECTION('',(0.,1.,0.));
#1397=DIRECTION('center_axis',(0.,0.,1.));
#1398=DIRECTION('ref_axis',(1.,0.,0.));
#1399=DIRECTION('center_axis',(0.,0.,1.));
#1400=DIRECTION('ref_axis',(1.,0.,0.));
#1401=CARTESIAN_POINT('',(0.,0.,0.));
#1402=CARTESIAN_POINT('Origin',(11.1999997496605,-37.,25.5999994277954));
#1403=CARTESIAN_POINT('',(11.1999997496605,-37.,25.5999994277954));
#1404=CARTESIAN_POINT('',(11.1999997496605,-37.,20.6999994277954));
#1405=CARTESIAN_POINT('',(11.1999997496605,-37.,17.1499997138977));
#1406=CARTESIAN_POINT('',(11.1999997496605,-35.,25.5999994277954));
#1407=CARTESIAN_POINT('',(11.1999997496605,-37.,25.5999994277954));
#1408=CARTESIAN_POINT('',(11.1999997496605,-35.,20.6999994277954));
#1409=CARTESIAN_POINT('',(11.1999997496605,-35.,18.1499997138977));
#1410=CARTESIAN_POINT('',(11.1999997496605,-37.,20.6999994277954));
#1411=CARTESIAN_POINT('Origin',(1.19999997317791,-37.,25.5999994277954));
#1412=CARTESIAN_POINT('',(1.19999997317791,-37.,25.5999994277954));
#1413=CARTESIAN_POINT('',(-23.400000013411,-37.,25.5999994277954));
#1414=CARTESIAN_POINT('',(1.19999997317791,-35.,25.5999994277954));
#1415=CARTESIAN_POINT('',(1.19999997317791,-37.,25.5999994277954));
#1416=CARTESIAN_POINT('',(23.599999986589,-35.,25.5999994277954));
#1417=CARTESIAN_POINT('Origin',(1.19999997317791,-37.,20.6999994277954));
#1418=CARTESIAN_POINT('',(1.19999997317791,-37.,20.6999994277954));
#1419=CARTESIAN_POINT('',(1.19999997317791,-37.,14.6999997138977));
#1420=CARTESIAN_POINT('',(1.19999997317791,-35.,20.6999994277954));
#1421=CARTESIAN_POINT('',(1.19999997317791,-37.,20.6999994277954));
#1422=CARTESIAN_POINT('',(1.19999997317791,-35.,15.6999997138977));
#1423=CARTESIAN_POINT('Origin',(11.1999997496605,-37.,20.6999994277954));
#1424=CARTESIAN_POINT('',(-18.4000001251698,-37.,20.6999994277954));
#1425=CARTESIAN_POINT('',(28.5999998748302,-35.,20.6999994277954));
#1426=CARTESIAN_POINT('Origin',(-48.,-19.9999995529652,21.4999994076788));
#1427=CARTESIAN_POINT('',(-46.,-19.9999995529652,26.4999994076788));
#1428=CARTESIAN_POINT('',(-46.,-19.9999995529652,21.4999994076788));
#1429=CARTESIAN_POINT('',(-46.,-19.9999995529652,16.0999997038394));
#1430=CARTESIAN_POINT('',(-48.,-19.9999995529652,26.4999994076788));
#1431=CARTESIAN_POINT('',(-48.,-19.9999995529652,26.4999994076788));
#1432=CARTESIAN_POINT('',(-48.,-19.9999995529652,21.4999994076788));
#1433=CARTESIAN_POINT('',(-48.,-19.9999995529652,15.0999997038394));
#1434=CARTESIAN_POINT('',(-48.,-19.9999995529652,21.4999994076788));
#1435=CARTESIAN_POINT('Origin',(-48.,-28.9999995529652,21.4999994076788));
#1436=CARTESIAN_POINT('',(-46.,-28.9999995529652,21.4999994076788));
#1437=CARTESIAN_POINT('',(-46.,-31.9999997764826,21.4999994076788));
#1438=CARTESIAN_POINT('',(-48.,-28.9999995529652,21.4999994076788));
#1439=CARTESIAN_POINT('',(-48.,4.00000022351742,21.4999994076788));
#1440=CARTESIAN_POINT('',(-48.,-28.9999995529652,21.4999994076788));
#1441=CARTESIAN_POINT('Origin',(-48.,-28.9999995529652,26.4999994076788));
#1442=CARTESIAN_POINT('',(-46.,-28.9999995529652,26.4999994076788));
#1443=CARTESIAN_POINT('',(-46.,-28.9999995529652,18.5999997038394));
#1444=CARTESIAN_POINT('',(-48.,-28.9999995529652,26.4999994076788));
#1445=CARTESIAN_POINT('',(-48.,-28.9999995529652,17.5999997038394));
#1446=CARTESIAN_POINT('',(-48.,-28.9999995529652,26.4999994076788));
#1447=CARTESIAN_POINT('Origin',(-48.,-19.9999995529652,26.4999994076788));
#1448=CARTESIAN_POINT('',(-46.,-27.4999997764826,26.4999994076788));
#1449=CARTESIAN_POINT('',(-48.,8.50000022351742,26.4999994076788));
#1450=CARTESIAN_POINT('Origin',(48.,25.000000372529,18.0000002682209));
#1451=CARTESIAN_POINT('',(46.,6.39510931766396,18.0000002682209));
#1452=CARTESIAN_POINT('',(46.,25.000000372529,18.0000002682209));
#1453=CARTESIAN_POINT('',(46.,30.0000001862645,18.0000002682209));
#1454=CARTESIAN_POINT('',(48.,6.39510931766396,18.0000002682209));
#1455=CARTESIAN_POINT('',(48.,6.39510931766396,18.0000002682209));
#1456=CARTESIAN_POINT('',(48.,25.000000372529,18.0000002682209));
#1457=CARTESIAN_POINT('',(48.,-5.99999981373549,18.0000002682209));
#1458=CARTESIAN_POINT('',(48.,25.000000372529,18.0000002682209));
#1459=CARTESIAN_POINT('Origin',(48.,25.000000372529,35.7));
#1460=CARTESIAN_POINT('',(46.,25.000000372529,35.7));
#1461=CARTESIAN_POINT('',(46.,25.000000372529,23.2));
#1462=CARTESIAN_POINT('',(48.,25.000000372529,35.7));
#1463=CARTESIAN_POINT('',(48.,25.000000372529,22.2));
#1464=CARTESIAN_POINT('',(24.,25.000000372529,35.7));
#1465=CARTESIAN_POINT('Origin',(48.,6.39510931766396,18.0000002682209));
#1466=CARTESIAN_POINT('',(46.,6.39510931766396,35.7));
#1467=CARTESIAN_POINT('',(46.,6.39510931766396,14.3500001341105));
#1468=CARTESIAN_POINT('',(48.,6.39510931766396,35.7));
#1469=CARTESIAN_POINT('',(24.,6.39510931766396,35.7));
#1470=CARTESIAN_POINT('',(48.,6.39510931766396,13.3500001341105));
#1471=CARTESIAN_POINT('Origin',(46.,35.,10.7));
#1472=CARTESIAN_POINT('',(46.,35.,35.7));
#1473=CARTESIAN_POINT('',(46.,-35.,35.7));
#1474=CARTESIAN_POINT('',(46.,35.,10.7));
#1475=CARTESIAN_POINT('',(46.,35.,10.7));
#1476=CARTESIAN_POINT('',(46.,-35.,10.7));
#1477=CARTESIAN_POINT('',(46.,17.5,10.7));
#1478=CARTESIAN_POINT('',(46.,-35.,35.7));
#1479=CARTESIAN_POINT('',(46.,-35.,10.7));
#1480=CARTESIAN_POINT('',(46.,-24.7957415623469,35.7));
#1481=CARTESIAN_POINT('',(46.,-35.,35.7));
#1482=CARTESIAN_POINT('',(46.,-24.7957415623469,18.0000002682209));
#1483=CARTESIAN_POINT('',(46.,-24.7957415623469,14.3500001341105));
#1484=CARTESIAN_POINT('',(46.,-5.00000007450581,18.0000002682209));
#1485=CARTESIAN_POINT('',(46.,14.9999999627471,18.0000002682209));
#1486=CARTESIAN_POINT('',(46.,-5.00000007450581,35.7));
#1487=CARTESIAN_POINT('',(46.,-5.00000007450581,23.2));
#1488=CARTESIAN_POINT('',(46.,-35.,35.7));
#1489=CARTESIAN_POINT('Origin',(0.,0.,35.7));
#1490=CARTESIAN_POINT('',(48.,33.,35.7));
#1491=CARTESIAN_POINT('',(48.,-37.,35.7));
#1492=CARTESIAN_POINT('',(44.,37.,35.7));
#1493=CARTESIAN_POINT('Origin',(48.,37.,35.7));
#1494=CARTESIAN_POINT('',(-44.,37.,35.7));
#1495=CARTESIAN_POINT('',(48.,37.,35.7));
#1496=CARTESIAN_POINT('',(-48.,33.,35.7));
#1497=CARTESIAN_POINT('Origin',(-48.,37.,35.7));
#1498=CARTESIAN_POINT('',(-48.,-33.,35.7));
#1499=CARTESIAN_POINT('',(-48.,37.,35.7));
#1500=CARTESIAN_POINT('',(-44.,-37.,35.7));
#1501=CARTESIAN_POINT('Origin',(-48.,-37.,35.7));
#1502=CARTESIAN_POINT('',(44.,-37.,35.7));
#1503=CARTESIAN_POINT('',(-48.,-37.,35.7));
#1504=CARTESIAN_POINT('',(48.,-33.,35.7));
#1505=CARTESIAN_POINT('Origin',(48.,-37.,35.7));
#1506=CARTESIAN_POINT('',(48.,-24.7957415623469,35.7));
#1507=CARTESIAN_POINT('',(48.,-37.,35.7));
#1508=CARTESIAN_POINT('',(24.,-24.7957415623469,35.7));
#1509=CARTESIAN_POINT('',(-46.,-35.,35.7));
#1510=CARTESIAN_POINT('',(-46.,-35.,35.7));
#1511=CARTESIAN_POINT('',(-46.,35.,35.7));
#1512=CARTESIAN_POINT('',(-46.,35.,35.7));
#1513=CARTESIAN_POINT('',(46.,35.,35.7));
#1514=CARTESIAN_POINT('',(-46.6,-37.,35.7));
#1515=CARTESIAN_POINT('Origin',(-48.,-37.,35.7));
#1516=CARTESIAN_POINT('',(-46.6,37.,35.7));
#1517=CARTESIAN_POINT('Origin',(-48.,37.,35.7));
#1518=CARTESIAN_POINT('',(49.4,-37.,35.7));
#1519=CARTESIAN_POINT('Origin',(48.,-37.,35.7));
#1520=CARTESIAN_POINT('',(49.4,37.,35.7));
#1521=CARTESIAN_POINT('Origin',(48.,37.,35.7));
#1522=CARTESIAN_POINT('Origin',(48.,-24.7957415623469,18.0000002682209));
#1523=CARTESIAN_POINT('',(48.,-24.7957415623469,18.0000002682209));
#1524=CARTESIAN_POINT('',(48.,-24.7957415623469,13.3500001341105));
#1525=CARTESIAN_POINT('',(48.,-24.7957415623469,18.0000002682209));
#1526=CARTESIAN_POINT('Origin',(48.,-5.00000007450581,18.0000002682209));
#1527=CARTESIAN_POINT('',(48.,-5.00000007450581,18.0000002682209));
#1528=CARTESIAN_POINT('',(48.,-21.0000000372529,18.0000002682209));
#1529=CARTESIAN_POINT('',(48.,-5.00000007450581,18.0000002682209));
#1530=CARTESIAN_POINT('Origin',(48.,-5.00000007450581,35.7));
#1531=CARTESIAN_POINT('',(48.,-5.00000007450581,35.7));
#1532=CARTESIAN_POINT('',(48.,-5.00000007450581,22.2));
#1533=CARTESIAN_POINT('',(24.,-5.00000007450581,35.7));
#1534=CARTESIAN_POINT('Origin',(0.,0.,35.7));
#1535=CARTESIAN_POINT('',(48.,-37.,35.7));
#1536=CARTESIAN_POINT('Origin',(0.,0.,10.7));
#1537=CARTESIAN_POINT('',(44.,-37.,10.7));
#1538=CARTESIAN_POINT('',(46.6,-37.,10.7));
#1539=CARTESIAN_POINT('',(-48.,-37.,10.7));
#1540=CARTESIAN_POINT('',(49.4,-37.,10.7));
#1541=CARTESIAN_POINT('Origin',(48.,-37.,10.7));
#1542=CARTESIAN_POINT('',(48.,-35.6,10.7));
#1543=CARTESIAN_POINT('Origin',(48.,-37.,10.7));
#1544=CARTESIAN_POINT('',(48.,-33.,10.7));
#1545=CARTESIAN_POINT('',(48.,-37.,10.7));
#1546=CARTESIAN_POINT('Origin',(48.,-37.,10.7));
#1547=CARTESIAN_POINT('Origin',(0.,0.,10.7));
#1548=CARTESIAN_POINT('',(46.6,37.,10.7));
#1549=CARTESIAN_POINT('',(44.,37.,10.7));
#1550=CARTESIAN_POINT('',(48.,37.,10.7));
#1551=CARTESIAN_POINT('',(48.,33.,10.7));
#1552=CARTESIAN_POINT('Origin',(48.,37.,10.7));
#1553=CARTESIAN_POINT('',(48.,35.6,10.7));
#1554=CARTESIAN_POINT('',(48.,-37.,10.7));
#1555=CARTESIAN_POINT('',(49.4,37.,10.7));
#1556=CARTESIAN_POINT('Origin',(48.,37.,10.7));
#1557=CARTESIAN_POINT('Origin',(48.,37.,10.7));
#1558=CARTESIAN_POINT('Origin',(0.,0.,10.7));
#1559=CARTESIAN_POINT('',(-48.,35.6,10.7));
#1560=CARTESIAN_POINT('',(-48.,33.,10.7));
#1561=CARTESIAN_POINT('',(-48.,37.,10.7));
#1562=CARTESIAN_POINT('',(-44.,37.,10.7));
#1563=CARTESIAN_POINT('Origin',(-48.,37.,10.7));
#1564=CARTESIAN_POINT('',(-46.6,37.,10.7));
#1565=CARTESIAN_POINT('',(48.,37.,10.7));
#1566=CARTESIAN_POINT('Origin',(-48.,37.,10.7));
#1567=CARTESIAN_POINT('Origin',(0.,0.,10.7));
#1568=CARTESIAN_POINT('',(-48.,-33.,10.7));
#1569=CARTESIAN_POINT('',(-48.,-35.6,10.7));
#1570=CARTESIAN_POINT('',(-48.,37.,10.7));
#1571=CARTESIAN_POINT('',(-46.6,-37.,10.7));
#1572=CARTESIAN_POINT('Origin',(-48.,-37.,10.7));
#1573=CARTESIAN_POINT('',(-44.,-37.,10.7));
#1574=CARTESIAN_POINT('',(-48.,-37.,10.7));
#1575=CARTESIAN_POINT('Origin',(-48.,-37.,10.7));
#1576=CARTESIAN_POINT('Origin',(-48.,-37.,10.7));
#1577=CARTESIAN_POINT('',(-46.6,-37.,10.7));
#1578=CARTESIAN_POINT('Origin',(-48.,-37.,10.7));
#1579=CARTESIAN_POINT('Origin',(-46.,35.,10.7));
#1580=CARTESIAN_POINT('',(-46.,35.,10.7));
#1581=CARTESIAN_POINT('',(-23.,35.,10.7));
#1582=CARTESIAN_POINT('',(-46.,35.,10.7));
#1583=CARTESIAN_POINT('Origin',(-46.,-35.,10.7));
#1584=CARTESIAN_POINT('',(-46.,-35.,10.7));
#1585=CARTESIAN_POINT('',(-46.,-17.5,10.7));
#1586=CARTESIAN_POINT('',(-46.,-35.,10.7));
#1587=CARTESIAN_POINT('Origin',(46.,-35.,10.7));
#1588=CARTESIAN_POINT('',(23.,-35.,10.7));
#1589=CARTESIAN_POINT('Origin',(-48.,37.,10.7));
#1590=CARTESIAN_POINT('',(-46.6,37.,10.7));
#1591=CARTESIAN_POINT('Origin',(-48.,37.,10.7));
#1592=CARTESIAN_POINT('Origin',(48.,-37.,10.7));
#1593=CARTESIAN_POINT('',(49.4,-37.,10.7));
#1594=CARTESIAN_POINT('Origin',(48.,-37.,10.7));
#1595=CARTESIAN_POINT('Origin',(48.,37.,10.7));
#1596=CARTESIAN_POINT('',(49.4,37.,10.7));
#1597=CARTESIAN_POINT('Origin',(48.,37.,10.7));
#1598=CARTESIAN_POINT('Origin',(-48.,-37.,10.7));
#1599=CARTESIAN_POINT('',(-44.,-37.,10.7));
#1600=CARTESIAN_POINT('',(-48.,-33.,10.7));
#1601=CARTESIAN_POINT('Origin',(-48.,37.,10.7));
#1602=CARTESIAN_POINT('',(-48.,33.,10.7));
#1603=CARTESIAN_POINT('',(-44.,37.,10.7));
#1604=CARTESIAN_POINT('Origin',(48.,37.,10.7));
#1605=CARTESIAN_POINT('',(44.,37.,10.7));
#1606=CARTESIAN_POINT('',(48.,33.,10.7));
#1607=CARTESIAN_POINT('Origin',(48.,-37.,10.7));
#1608=CARTESIAN_POINT('',(48.,-33.,10.7));
#1609=CARTESIAN_POINT('',(44.,-37.,10.7));
#1610=CARTESIAN_POINT('Origin',(0.,0.,10.7));
#1611=CARTESIAN_POINT('',(48.,37.,10.7));
#1612=CARTESIAN_POINT('',(48.,-37.,10.7));
#1613=CARTESIAN_POINT('',(48.,37.,10.7));
#1614=CARTESIAN_POINT('Origin',(0.,0.,10.7));
#1615=CARTESIAN_POINT('',(-48.,37.,10.7));
#1616=CARTESIAN_POINT('',(48.,37.,10.7));
#1617=CARTESIAN_POINT('',(-48.,37.,10.7));
#1618=CARTESIAN_POINT('Origin',(0.,0.,10.7));
#1619=CARTESIAN_POINT('',(48.,-37.,10.7));
#1620=CARTESIAN_POINT('',(-48.,-37.,10.7));
#1621=CARTESIAN_POINT('',(48.,-37.,10.7));
#1622=CARTESIAN_POINT('Origin',(0.,0.,10.7));
#1623=CARTESIAN_POINT('',(-37.5,29.5,10.7));
#1624=CARTESIAN_POINT('Origin',(-40.5,29.5,10.7));
#1625=CARTESIAN_POINT('',(-37.5,-29.5,10.7));
#1626=CARTESIAN_POINT('Origin',(-40.5,-29.5,10.7));
#1627=CARTESIAN_POINT('',(43.5,-29.5,10.7));
#1628=CARTESIAN_POINT('Origin',(40.5,-29.5,10.7));
#1629=CARTESIAN_POINT('',(43.5,29.5,10.7));
#1630=CARTESIAN_POINT('Origin',(40.5,29.5,10.7));
#1631=CARTESIAN_POINT('Origin',(40.5,29.5,10.7));
#1632=CARTESIAN_POINT('',(43.5,29.5,19.7));
#1633=CARTESIAN_POINT('Origin',(40.5,29.5,19.7));
#1634=CARTESIAN_POINT('',(43.5,29.5,10.7));
#1635=CARTESIAN_POINT('Origin',(40.5,29.5,19.7));
#1636=CARTESIAN_POINT('Origin',(-40.5,29.5,10.7));
#1637=CARTESIAN_POINT('',(-39.1,29.5,19.7));
#1638=CARTESIAN_POINT('Origin',(-40.5,29.5,19.7));
#1639=CARTESIAN_POINT('',(-39.1,29.5,10.7));
#1640=CARTESIAN_POINT('',(-39.1,29.5,10.7));
#1641=CARTESIAN_POINT('Origin',(-40.5,29.5,10.7));
#1642=CARTESIAN_POINT('Origin',(-40.5,29.5,10.7));
#1643=CARTESIAN_POINT('',(-37.5,29.5,19.7));
#1644=CARTESIAN_POINT('Origin',(-40.5,29.5,19.7));
#1645=CARTESIAN_POINT('',(-37.5,29.5,10.7));
#1646=CARTESIAN_POINT('Origin',(-40.5,29.5,19.7));
#1647=CARTESIAN_POINT('Origin',(0.,0.,10.7));
#1648=CARTESIAN_POINT('',(-48.,-37.,10.7));
#1649=CARTESIAN_POINT('',(-48.,37.,10.7));
#1650=CARTESIAN_POINT('',(-48.,-37.,10.7));
#1651=CARTESIAN_POINT('Origin',(40.5,-29.5,10.7));
#1652=CARTESIAN_POINT('',(41.9,-29.5,19.7));
#1653=CARTESIAN_POINT('Origin',(40.5,-29.5,19.7));
#1654=CARTESIAN_POINT('',(41.9,-29.5,10.7));
#1655=CARTESIAN_POINT('',(41.9,-29.5,10.7));
#1656=CARTESIAN_POINT('Origin',(40.5,-29.5,10.7));
#1657=CARTESIAN_POINT('Origin',(40.5,-29.5,10.7));
#1658=CARTESIAN_POINT('',(43.5,-29.5,19.7));
#1659=CARTESIAN_POINT('Origin',(40.5,-29.5,19.7));
#1660=CARTESIAN_POINT('',(43.5,-29.5,10.7));
#1661=CARTESIAN_POINT('Origin',(40.5,-29.5,19.7));
#1662=CARTESIAN_POINT('Origin',(0.,0.,10.7));
#1663=CARTESIAN_POINT('Origin',(-40.5,-29.5,10.7));
#1664=CARTESIAN_POINT('',(-37.5,-29.5,19.7));
#1665=CARTESIAN_POINT('Origin',(-40.5,-29.5,19.7));
#1666=CARTESIAN_POINT('',(-37.5,-29.5,10.7));
#1667=CARTESIAN_POINT('Origin',(-40.5,-29.5,19.7));
#1668=CARTESIAN_POINT('Origin',(-48.,-37.,8.7));
#1669=CARTESIAN_POINT('',(-48.,-37.,8.7));
#1670=CARTESIAN_POINT('',(48.,-37.,8.7));
#1671=CARTESIAN_POINT('',(-48.,-37.,8.7));
#1672=CARTESIAN_POINT('',(48.,-37.,8.7));
#1673=CARTESIAN_POINT('',(-48.,-37.,8.7));
#1674=CARTESIAN_POINT('Origin',(-48.,37.,8.7));
#1675=CARTESIAN_POINT('',(-48.,37.,8.7));
#1676=CARTESIAN_POINT('',(-48.,37.,8.7));
#1677=CARTESIAN_POINT('',(-48.,37.,8.7));
#1678=CARTESIAN_POINT('Origin',(48.,37.,8.7));
#1679=CARTESIAN_POINT('',(48.,37.,8.7));
#1680=CARTESIAN_POINT('',(48.,37.,8.7));
#1681=CARTESIAN_POINT('',(48.,37.,8.7));
#1682=CARTESIAN_POINT('Origin',(48.,-37.,8.7));
#1683=CARTESIAN_POINT('',(48.,-37.,8.7));
#1684=CARTESIAN_POINT('Origin',(0.,0.,10.7));
#1685=CARTESIAN_POINT('Origin',(0.,0.,8.7));
#1686=UNCERTAINTY_MEASURE_WITH_UNIT(LENGTH_MEASURE(0.01),#1690,
'DISTANCE_ACCURACY_VALUE',
'Maximum model space distance between geometric entities at asserted c
onnectivities');
#1687=UNCERTAINTY_MEASURE_WITH_UNIT(LENGTH_MEASURE(0.01),#1690,
'DISTANCE_ACCURACY_VALUE',
'Maximum model space distance between geometric entities at asserted c
onnectivities');
#1688=(
GEOMETRIC_REPRESENTATION_CONTEXT(3)
GLOBAL_UNCERTAINTY_ASSIGNED_CONTEXT((#1686))
GLOBAL_UNIT_ASSIGNED_CONTEXT((#1690,#1692,#1693))
REPRESENTATION_CONTEXT('','3D')
);
#1689=(
GEOMETRIC_REPRESENTATION_CONTEXT(3)
GLOBAL_UNCERTAINTY_ASSIGNED_CONTEXT((#1687))
GLOBAL_UNIT_ASSIGNED_CONTEXT((#1690,#1692,#1693))
REPRESENTATION_CONTEXT('','3D')
);
#1690=(
LENGTH_UNIT()
NAMED_UNIT(*)
SI_UNIT(.MILLI.,.METRE.)
);
#1691=(
LENGTH_UNIT()
NAMED_UNIT(*)
SI_UNIT($,.METRE.)
);
#1692=(
NAMED_UNIT(*)
PLANE_ANGLE_UNIT()
SI_UNIT($,.RADIAN.)
);
#1693=(
NAMED_UNIT(*)
SI_UNIT($,.STERADIAN.)
SOLID_ANGLE_UNIT()
);
#1694=SHAPE_DEFINITION_REPRESENTATION(#1695,#1696);
#1695=PRODUCT_DEFINITION_SHAPE('',$,#1698);
#1696=SHAPE_REPRESENTATION('',(#1028),#1688);
#1697=PRODUCT_DEFINITION_CONTEXT('part definition',#1702,'design');
#1698=PRODUCT_DEFINITION('2026-01-23-22-11-00-959','case-v1',#1699,#1697);
#1699=PRODUCT_DEFINITION_FORMATION('',$,#1704);
#1700=PRODUCT_RELATED_PRODUCT_CATEGORY('case-v1','case-v1',(#1704));
#1701=APPLICATION_PROTOCOL_DEFINITION('international standard',
'automotive_design',2009,#1702);
#1702=APPLICATION_CONTEXT(
'Core Data for Automotive Mechanical Design Process');
#1703=PRODUCT_CONTEXT('part definition',#1702,'mechanical');
#1704=PRODUCT('2026-01-23-22-11-00-959','case-v1',$,(#1703));
#1705=PRESENTATION_STYLE_ASSIGNMENT((#1707));
#1706=PRESENTATION_STYLE_ASSIGNMENT((#1708));
#1707=SURFACE_STYLE_USAGE(.BOTH.,#1709);
#1708=SURFACE_STYLE_USAGE(.BOTH.,#1710);
#1709=SURFACE_SIDE_STYLE('',(#1711));
#1710=SURFACE_SIDE_STYLE('',(#1712));
#1711=SURFACE_STYLE_FILL_AREA(#1713);
#1712=SURFACE_STYLE_FILL_AREA(#1714);
#1713=FILL_AREA_STYLE('Steel - Satin',(#1715));
#1714=FILL_AREA_STYLE('Plastic - Translucent Glossy (Blue)',(#1716));
#1715=FILL_AREA_STYLE_COLOUR('Steel - Satin',#1717);
#1716=FILL_AREA_STYLE_COLOUR('Plastic - Translucent Glossy (Blue)',#1718);
#1717=COLOUR_RGB('Steel - Satin',0.627450980392157,0.627450980392157,0.627450980392157);
#1718=COLOUR_RGB('Plastic - Translucent Glossy (Blue)',0.,0.984313725490196,
1.);
ENDSEC;
END-ISO-10303-21;
