ISO-10303-21;
HEADER;
/* Generated by software containing ST-Developer
 * from STEP Tools, Inc. (www.steptools.com) 
 */

FILE_DESCRIPTION(
/* description */ (''),
/* implementation_level */ '2;1');

FILE_NAME(
/* name */ 'top_lid.step',
/* time_stamp */ '2026-01-25T07:51:51+05:30',
/* author */ (''),
/* organization */ (''),
/* preprocessor_version */ 'ST-DEVELOPER v20.1',
/* originating_system */ 'Autodesk Translation Framework v14.24.0.0',
/* authorisation */ '');

FILE_SCHEMA (('AUTOMOTIVE_DESIGN { 1 0 10303 214 3 1 1 }'));
ENDSEC;

DATA;
#10=MECHANICAL_DESIGN_GEOMETRIC_PRESENTATION_REPRESENTATION('',(#13),#943);
#11=SHAPE_REPRESENTATION_RELATIONSHIP('SRR','None',#950,#12);
#12=ADVANCED_BREP_SHAPE_REPRESENTATION('',(#14),#942);
#13=STYLED_ITEM('',(#959),#14);
#14=MANIFOLD_SOLID_BREP('Body1',#555);
#15=CYLINDRICAL_SURFACE('',#587,3.25);
#16=CYLINDRICAL_SURFACE('',#592,3.25);
#17=CYLINDRICAL_SURFACE('',#597,3.25);
#18=CYLINDRICAL_SURFACE('',#602,3.25);
#19=CYLINDRICAL_SURFACE('',#607,1.7);
#20=CYLINDRICAL_SURFACE('',#608,1.7);
#21=CYLINDRICAL_SURFACE('',#609,1.7);
#22=CYLINDRICAL_SURFACE('',#610,1.7);
#23=CYLINDRICAL_SURFACE('',#612,4.);
#24=CYLINDRICAL_SURFACE('',#615,4.);
#25=CYLINDRICAL_SURFACE('',#618,4.);
#26=CYLINDRICAL_SURFACE('',#621,3.99999999999999);
#27=CIRCLE('',#579,3.99999999999999);
#28=CIRCLE('',#580,4.);
#29=CIRCLE('',#581,4.);
#30=CIRCLE('',#582,4.);
#31=CIRCLE('',#583,1.7);
#32=CIRCLE('',#584,1.7);
#33=CIRCLE('',#585,1.7);
#34=CIRCLE('',#586,1.7);
#35=CIRCLE('',#588,3.25);
#36=CIRCLE('',#589,3.25);
#37=CIRCLE('',#591,1.7);
#38=CIRCLE('',#593,3.25);
#39=CIRCLE('',#594,3.25);
#40=CIRCLE('',#596,1.7);
#41=CIRCLE('',#598,3.25);
#42=CIRCLE('',#599,3.25);
#43=CIRCLE('',#601,1.7);
#44=CIRCLE('',#603,3.25);
#45=CIRCLE('',#604,3.25);
#46=CIRCLE('',#606,1.7);
#47=CIRCLE('',#613,4.);
#48=CIRCLE('',#616,4.);
#49=CIRCLE('',#619,4.);
#50=CIRCLE('',#622,3.99999999999999);
#51=FACE_BOUND('',#106,.T.);
#52=FACE_BOUND('',#108,.T.);
#53=FACE_BOUND('',#109,.T.);
#54=FACE_BOUND('',#110,.T.);
#55=FACE_BOUND('',#111,.T.);
#56=FACE_BOUND('',#112,.T.);
#57=FACE_BOUND('',#115,.T.);
#58=FACE_BOUND('',#118,.T.);
#59=FACE_BOUND('',#121,.T.);
#60=FACE_BOUND('',#124,.T.);
#61=FACE_BOUND('',#138,.T.);
#62=FACE_BOUND('',#139,.T.);
#63=FACE_BOUND('',#140,.T.);
#64=FACE_BOUND('',#141,.T.);
#65=FACE_OUTER_BOUND('',#97,.T.);
#66=FACE_OUTER_BOUND('',#98,.T.);
#67=FACE_OUTER_BOUND('',#99,.T.);
#68=FACE_OUTER_BOUND('',#100,.T.);
#69=FACE_OUTER_BOUND('',#101,.T.);
#70=FACE_OUTER_BOUND('',#102,.T.);
#71=FACE_OUTER_BOUND('',#103,.T.);
#72=FACE_OUTER_BOUND('',#104,.T.);
#73=FACE_OUTER_BOUND('',#105,.T.);
#74=FACE_OUTER_BOUND('',#107,.T.);
#75=FACE_OUTER_BOUND('',#113,.T.);
#76=FACE_OUTER_BOUND('',#114,.T.);
#77=FACE_OUTER_BOUND('',#116,.T.);
#78=FACE_OUTER_BOUND('',#117,.T.);
#79=FACE_OUTER_BOUND('',#119,.T.);
#80=FACE_OUTER_BOUND('',#120,.T.);
#81=FACE_OUTER_BOUND('',#122,.T.);
#82=FACE_OUTER_BOUND('',#123,.T.);
#83=FACE_OUTER_BOUND('',#125,.T.);
#84=FACE_OUTER_BOUND('',#126,.T.);
#85=FACE_OUTER_BOUND('',#127,.T.);
#86=FACE_OUTER_BOUND('',#128,.T.);
#87=FACE_OUTER_BOUND('',#129,.T.);
#88=FACE_OUTER_BOUND('',#130,.T.);
#89=FACE_OUTER_BOUND('',#131,.T.);
#90=FACE_OUTER_BOUND('',#132,.T.);
#91=FACE_OUTER_BOUND('',#133,.T.);
#92=FACE_OUTER_BOUND('',#134,.T.);
#93=FACE_OUTER_BOUND('',#135,.T.);
#94=FACE_OUTER_BOUND('',#136,.T.);
#95=FACE_OUTER_BOUND('',#137,.T.);
#96=FACE_OUTER_BOUND('',#142,.T.);
#97=EDGE_LOOP('',(#359,#360,#361,#362));
#98=EDGE_LOOP('',(#363,#364,#365,#366));
#99=EDGE_LOOP('',(#367,#368,#369,#370));
#100=EDGE_LOOP('',(#371,#372,#373,#374));
#101=EDGE_LOOP('',(#375,#376,#377,#378));
#102=EDGE_LOOP('',(#379,#380,#381,#382));
#103=EDGE_LOOP('',(#383,#384,#385,#386));
#104=EDGE_LOOP('',(#387,#388,#389,#390));
#105=EDGE_LOOP('',(#391,#392,#393,#394));
#106=EDGE_LOOP('',(#395,#396,#397,#398));
#107=EDGE_LOOP('',(#399,#400,#401,#402,#403,#404,#405,#406));
#108=EDGE_LOOP('',(#407));
#109=EDGE_LOOP('',(#408));
#110=EDGE_LOOP('',(#409));
#111=EDGE_LOOP('',(#410));
#112=EDGE_LOOP('',(#411,#412,#413,#414));
#113=EDGE_LOOP('',(#415,#416,#417,#418));
#114=EDGE_LOOP('',(#419));
#115=EDGE_LOOP('',(#420));
#116=EDGE_LOOP('',(#421,#422,#423,#424));
#117=EDGE_LOOP('',(#425));
#118=EDGE_LOOP('',(#426));
#119=EDGE_LOOP('',(#427,#428,#429,#430));
#120=EDGE_LOOP('',(#431));
#121=EDGE_LOOP('',(#432));
#122=EDGE_LOOP('',(#433,#434,#435,#436));
#123=EDGE_LOOP('',(#437));
#124=EDGE_LOOP('',(#438));
#125=EDGE_LOOP('',(#439,#440,#441,#442));
#126=EDGE_LOOP('',(#443,#444,#445,#446));
#127=EDGE_LOOP('',(#447,#448,#449,#450));
#128=EDGE_LOOP('',(#451,#452,#453,#454));
#129=EDGE_LOOP('',(#455,#456,#457,#458));
#130=EDGE_LOOP('',(#459,#460,#461,#462));
#131=EDGE_LOOP('',(#463,#464,#465,#466));
#132=EDGE_LOOP('',(#467,#468,#469,#470));
#133=EDGE_LOOP('',(#471,#472,#473,#474));
#134=EDGE_LOOP('',(#475,#476,#477,#478));
#135=EDGE_LOOP('',(#479,#480,#481,#482));
#136=EDGE_LOOP('',(#483,#484,#485,#486));
#137=EDGE_LOOP('',(#487,#488,#489,#490,#491,#492,#493,#494));
#138=EDGE_LOOP('',(#495));
#139=EDGE_LOOP('',(#496));
#140=EDGE_LOOP('',(#497));
#141=EDGE_LOOP('',(#498));
#142=EDGE_LOOP('',(#499,#500,#501,#502));
#143=LINE('',#791,#191);
#144=LINE('',#793,#192);
#145=LINE('',#795,#193);
#146=LINE('',#796,#194);
#147=LINE('',#799,#195);
#148=LINE('',#801,#196);
#149=LINE('',#802,#197);
#150=LINE('',#805,#198);
#151=LINE('',#807,#199);
#152=LINE('',#808,#200);
#153=LINE('',#810,#201);
#154=LINE('',#811,#202);
#155=LINE('',#815,#203);
#156=LINE('',#817,#204);
#157=LINE('',#819,#205);
#158=LINE('',#820,#206);
#159=LINE('',#823,#207);
#160=LINE('',#825,#208);
#161=LINE('',#826,#209);
#162=LINE('',#829,#210);
#163=LINE('',#831,#211);
#164=LINE('',#832,#212);
#165=LINE('',#834,#213);
#166=LINE('',#835,#214);
#167=LINE('',#842,#215);
#168=LINE('',#846,#216);
#169=LINE('',#850,#217);
#170=LINE('',#853,#218);
#171=LINE('',#866,#219);
#172=LINE('',#875,#220);
#173=LINE('',#884,#221);
#174=LINE('',#893,#222);
#175=LINE('',#899,#223);
#176=LINE('',#901,#224);
#177=LINE('',#903,#225);
#178=LINE('',#905,#226);
#179=LINE('',#908,#227);
#180=LINE('',#910,#228);
#181=LINE('',#911,#229);
#182=LINE('',#915,#230);
#183=LINE('',#918,#231);
#184=LINE('',#919,#232);
#185=LINE('',#923,#233);
#186=LINE('',#926,#234);
#187=LINE('',#927,#235);
#188=LINE('',#931,#236);
#189=LINE('',#934,#237);
#190=LINE('',#935,#238);
#191=VECTOR('',#629,10.);
#192=VECTOR('',#630,10.);
#193=VECTOR('',#631,10.);
#194=VECTOR('',#632,10.);
#195=VECTOR('',#635,10.);
#196=VECTOR('',#636,10.);
#197=VECTOR('',#637,10.);
#198=VECTOR('',#640,10.);
#199=VECTOR('',#641,10.);
#200=VECTOR('',#642,10.);
#201=VECTOR('',#645,10.);
#202=VECTOR('',#646,10.);
#203=VECTOR('',#649,10.);
#204=VECTOR('',#650,10.);
#205=VECTOR('',#651,10.);
#206=VECTOR('',#652,10.);
#207=VECTOR('',#655,10.);
#208=VECTOR('',#656,10.);
#209=VECTOR('',#657,10.);
#210=VECTOR('',#660,10.);
#211=VECTOR('',#661,10.);
#212=VECTOR('',#662,10.);
#213=VECTOR('',#665,10.);
#214=VECTOR('',#666,10.);
#215=VECTOR('',#673,10.);
#216=VECTOR('',#676,10.);
#217=VECTOR('',#679,10.);
#218=VECTOR('',#682,10.);
#219=VECTOR('',#695,3.25);
#220=VECTOR('',#706,3.25);
#221=VECTOR('',#717,3.25);
#222=VECTOR('',#728,3.25);
#223=VECTOR('',#737,1.7);
#224=VECTOR('',#740,1.7);
#225=VECTOR('',#743,1.7);
#226=VECTOR('',#746,1.7);
#227=VECTOR('',#749,10.);
#228=VECTOR('',#750,10.);
#229=VECTOR('',#751,10.);
#230=VECTOR('',#756,10.);
#231=VECTOR('',#759,10.);
#232=VECTOR('',#760,10.);
#233=VECTOR('',#765,10.);
#234=VECTOR('',#768,10.);
#235=VECTOR('',#769,10.);
#236=VECTOR('',#774,10.);
#237=VECTOR('',#777,10.);
#238=VECTOR('',#778,10.);
#239=VERTEX_POINT('',#789);
#240=VERTEX_POINT('',#790);
#241=VERTEX_POINT('',#792);
#242=VERTEX_POINT('',#794);
#243=VERTEX_POINT('',#798);
#244=VERTEX_POINT('',#800);
#245=VERTEX_POINT('',#804);
#246=VERTEX_POINT('',#806);
#247=VERTEX_POINT('',#813);
#248=VERTEX_POINT('',#814);
#249=VERTEX_POINT('',#816);
#250=VERTEX_POINT('',#818);
#251=VERTEX_POINT('',#822);
#252=VERTEX_POINT('',#824);
#253=VERTEX_POINT('',#828);
#254=VERTEX_POINT('',#830);
#255=VERTEX_POINT('',#838);
#256=VERTEX_POINT('',#839);
#257=VERTEX_POINT('',#841);
#258=VERTEX_POINT('',#843);
#259=VERTEX_POINT('',#845);
#260=VERTEX_POINT('',#847);
#261=VERTEX_POINT('',#849);
#262=VERTEX_POINT('',#851);
#263=VERTEX_POINT('',#854);
#264=VERTEX_POINT('',#856);
#265=VERTEX_POINT('',#858);
#266=VERTEX_POINT('',#860);
#267=VERTEX_POINT('',#863);
#268=VERTEX_POINT('',#865);
#269=VERTEX_POINT('',#869);
#270=VERTEX_POINT('',#872);
#271=VERTEX_POINT('',#874);
#272=VERTEX_POINT('',#878);
#273=VERTEX_POINT('',#881);
#274=VERTEX_POINT('',#883);
#275=VERTEX_POINT('',#887);
#276=VERTEX_POINT('',#890);
#277=VERTEX_POINT('',#892);
#278=VERTEX_POINT('',#896);
#279=VERTEX_POINT('',#907);
#280=VERTEX_POINT('',#909);
#281=VERTEX_POINT('',#913);
#282=VERTEX_POINT('',#917);
#283=VERTEX_POINT('',#921);
#284=VERTEX_POINT('',#925);
#285=VERTEX_POINT('',#929);
#286=VERTEX_POINT('',#933);
#287=EDGE_CURVE('',#239,#240,#143,.F.);
#288=EDGE_CURVE('',#239,#241,#144,.F.);
#289=EDGE_CURVE('',#242,#241,#145,.F.);
#290=EDGE_CURVE('',#240,#242,#146,.T.);
#291=EDGE_CURVE('',#240,#243,#147,.F.);
#292=EDGE_CURVE('',#244,#242,#148,.F.);
#293=EDGE_CURVE('',#243,#244,#149,.T.);
#294=EDGE_CURVE('',#243,#245,#150,.F.);
#295=EDGE_CURVE('',#246,#244,#151,.F.);
#296=EDGE_CURVE('',#245,#246,#152,.F.);
#297=EDGE_CURVE('',#245,#239,#153,.F.);
#298=EDGE_CURVE('',#241,#246,#154,.F.);
#299=EDGE_CURVE('',#247,#248,#155,.T.);
#300=EDGE_CURVE('',#247,#249,#156,.T.);
#301=EDGE_CURVE('',#250,#249,#157,.T.);
#302=EDGE_CURVE('',#248,#250,#158,.T.);
#303=EDGE_CURVE('',#248,#251,#159,.T.);
#304=EDGE_CURVE('',#252,#250,#160,.T.);
#305=EDGE_CURVE('',#251,#252,#161,.T.);
#306=EDGE_CURVE('',#251,#253,#162,.T.);
#307=EDGE_CURVE('',#254,#252,#163,.T.);
#308=EDGE_CURVE('',#253,#254,#164,.T.);
#309=EDGE_CURVE('',#253,#247,#165,.T.);
#310=EDGE_CURVE('',#249,#254,#166,.T.);
#311=EDGE_CURVE('',#255,#256,#27,.T.);
#312=EDGE_CURVE('',#255,#257,#167,.T.);
#313=EDGE_CURVE('',#258,#257,#28,.T.);
#314=EDGE_CURVE('',#258,#259,#168,.T.);
#315=EDGE_CURVE('',#260,#259,#29,.T.);
#316=EDGE_CURVE('',#260,#261,#169,.T.);
#317=EDGE_CURVE('',#262,#261,#30,.T.);
#318=EDGE_CURVE('',#262,#256,#170,.T.);
#319=EDGE_CURVE('',#263,#263,#31,.T.);
#320=EDGE_CURVE('',#264,#264,#32,.T.);
#321=EDGE_CURVE('',#265,#265,#33,.T.);
#322=EDGE_CURVE('',#266,#266,#34,.T.);
#323=EDGE_CURVE('',#267,#267,#35,.T.);
#324=EDGE_CURVE('',#267,#268,#171,.T.);
#325=EDGE_CURVE('',#268,#268,#36,.T.);
#326=EDGE_CURVE('',#269,#269,#37,.T.);
#327=EDGE_CURVE('',#270,#270,#38,.T.);
#328=EDGE_CURVE('',#270,#271,#172,.T.);
#329=EDGE_CURVE('',#271,#271,#39,.T.);
#330=EDGE_CURVE('',#272,#272,#40,.T.);
#331=EDGE_CURVE('',#273,#273,#41,.T.);
#332=EDGE_CURVE('',#273,#274,#173,.T.);
#333=EDGE_CURVE('',#274,#274,#42,.T.);
#334=EDGE_CURVE('',#275,#275,#43,.T.);
#335=EDGE_CURVE('',#276,#276,#44,.T.);
#336=EDGE_CURVE('',#276,#277,#174,.T.);
#337=EDGE_CURVE('',#277,#277,#45,.T.);
#338=EDGE_CURVE('',#278,#278,#46,.T.);
#339=EDGE_CURVE('',#272,#263,#175,.T.);
#340=EDGE_CURVE('',#275,#264,#176,.T.);
#341=EDGE_CURVE('',#278,#265,#177,.T.);
#342=EDGE_CURVE('',#269,#266,#178,.T.);
#343=EDGE_CURVE('',#255,#279,#179,.T.);
#344=EDGE_CURVE('',#280,#279,#180,.T.);
#345=EDGE_CURVE('',#257,#280,#181,.T.);
#346=EDGE_CURVE('',#281,#280,#47,.T.);
#347=EDGE_CURVE('',#258,#281,#182,.T.);
#348=EDGE_CURVE('',#282,#281,#183,.T.);
#349=EDGE_CURVE('',#259,#282,#184,.T.);
#350=EDGE_CURVE('',#283,#282,#48,.T.);
#351=EDGE_CURVE('',#260,#283,#185,.T.);
#352=EDGE_CURVE('',#284,#283,#186,.T.);
#353=EDGE_CURVE('',#261,#284,#187,.T.);
#354=EDGE_CURVE('',#285,#284,#49,.T.);
#355=EDGE_CURVE('',#262,#285,#188,.T.);
#356=EDGE_CURVE('',#286,#285,#189,.T.);
#357=EDGE_CURVE('',#256,#286,#190,.T.);
#358=EDGE_CURVE('',#279,#286,#50,.T.);
#359=ORIENTED_EDGE('',*,*,#287,.F.);
#360=ORIENTED_EDGE('',*,*,#288,.T.);
#361=ORIENTED_EDGE('',*,*,#289,.F.);
#362=ORIENTED_EDGE('',*,*,#290,.F.);
#363=ORIENTED_EDGE('',*,*,#291,.F.);
#364=ORIENTED_EDGE('',*,*,#290,.T.);
#365=ORIENTED_EDGE('',*,*,#292,.F.);
#366=ORIENTED_EDGE('',*,*,#293,.F.);
#367=ORIENTED_EDGE('',*,*,#294,.F.);
#368=ORIENTED_EDGE('',*,*,#293,.T.);
#369=ORIENTED_EDGE('',*,*,#295,.F.);
#370=ORIENTED_EDGE('',*,*,#296,.F.);
#371=ORIENTED_EDGE('',*,*,#297,.F.);
#372=ORIENTED_EDGE('',*,*,#296,.T.);
#373=ORIENTED_EDGE('',*,*,#298,.F.);
#374=ORIENTED_EDGE('',*,*,#288,.F.);
#375=ORIENTED_EDGE('',*,*,#299,.F.);
#376=ORIENTED_EDGE('',*,*,#300,.T.);
#377=ORIENTED_EDGE('',*,*,#301,.F.);
#378=ORIENTED_EDGE('',*,*,#302,.F.);
#379=ORIENTED_EDGE('',*,*,#303,.F.);
#380=ORIENTED_EDGE('',*,*,#302,.T.);
#381=ORIENTED_EDGE('',*,*,#304,.F.);
#382=ORIENTED_EDGE('',*,*,#305,.F.);
#383=ORIENTED_EDGE('',*,*,#306,.F.);
#384=ORIENTED_EDGE('',*,*,#305,.T.);
#385=ORIENTED_EDGE('',*,*,#307,.F.);
#386=ORIENTED_EDGE('',*,*,#308,.F.);
#387=ORIENTED_EDGE('',*,*,#309,.F.);
#388=ORIENTED_EDGE('',*,*,#308,.T.);
#389=ORIENTED_EDGE('',*,*,#310,.F.);
#390=ORIENTED_EDGE('',*,*,#300,.F.);
#391=ORIENTED_EDGE('',*,*,#310,.T.);
#392=ORIENTED_EDGE('',*,*,#307,.T.);
#393=ORIENTED_EDGE('',*,*,#304,.T.);
#394=ORIENTED_EDGE('',*,*,#301,.T.);
#395=ORIENTED_EDGE('',*,*,#298,.T.);
#396=ORIENTED_EDGE('',*,*,#295,.T.);
#397=ORIENTED_EDGE('',*,*,#292,.T.);
#398=ORIENTED_EDGE('',*,*,#289,.T.);
#399=ORIENTED_EDGE('',*,*,#311,.F.);
#400=ORIENTED_EDGE('',*,*,#312,.T.);
#401=ORIENTED_EDGE('',*,*,#313,.F.);
#402=ORIENTED_EDGE('',*,*,#314,.T.);
#403=ORIENTED_EDGE('',*,*,#315,.F.);
#404=ORIENTED_EDGE('',*,*,#316,.T.);
#405=ORIENTED_EDGE('',*,*,#317,.F.);
#406=ORIENTED_EDGE('',*,*,#318,.T.);
#407=ORIENTED_EDGE('',*,*,#319,.F.);
#408=ORIENTED_EDGE('',*,*,#320,.F.);
#409=ORIENTED_EDGE('',*,*,#321,.F.);
#410=ORIENTED_EDGE('',*,*,#322,.F.);
#411=ORIENTED_EDGE('',*,*,#299,.T.);
#412=ORIENTED_EDGE('',*,*,#303,.T.);
#413=ORIENTED_EDGE('',*,*,#306,.T.);
#414=ORIENTED_EDGE('',*,*,#309,.T.);
#415=ORIENTED_EDGE('',*,*,#323,.F.);
#416=ORIENTED_EDGE('',*,*,#324,.T.);
#417=ORIENTED_EDGE('',*,*,#325,.T.);
#418=ORIENTED_EDGE('',*,*,#324,.F.);
#419=ORIENTED_EDGE('',*,*,#325,.F.);
#420=ORIENTED_EDGE('',*,*,#326,.F.);
#421=ORIENTED_EDGE('',*,*,#327,.F.);
#422=ORIENTED_EDGE('',*,*,#328,.T.);
#423=ORIENTED_EDGE('',*,*,#329,.T.);
#424=ORIENTED_EDGE('',*,*,#328,.F.);
#425=ORIENTED_EDGE('',*,*,#329,.F.);
#426=ORIENTED_EDGE('',*,*,#330,.F.);
#427=ORIENTED_EDGE('',*,*,#331,.F.);
#428=ORIENTED_EDGE('',*,*,#332,.T.);
#429=ORIENTED_EDGE('',*,*,#333,.T.);
#430=ORIENTED_EDGE('',*,*,#332,.F.);
#431=ORIENTED_EDGE('',*,*,#333,.F.);
#432=ORIENTED_EDGE('',*,*,#334,.F.);
#433=ORIENTED_EDGE('',*,*,#335,.F.);
#434=ORIENTED_EDGE('',*,*,#336,.T.);
#435=ORIENTED_EDGE('',*,*,#337,.T.);
#436=ORIENTED_EDGE('',*,*,#336,.F.);
#437=ORIENTED_EDGE('',*,*,#337,.F.);
#438=ORIENTED_EDGE('',*,*,#338,.F.);
#439=ORIENTED_EDGE('',*,*,#330,.T.);
#440=ORIENTED_EDGE('',*,*,#339,.T.);
#441=ORIENTED_EDGE('',*,*,#319,.T.);
#442=ORIENTED_EDGE('',*,*,#339,.F.);
#443=ORIENTED_EDGE('',*,*,#334,.T.);
#444=ORIENTED_EDGE('',*,*,#340,.T.);
#445=ORIENTED_EDGE('',*,*,#320,.T.);
#446=ORIENTED_EDGE('',*,*,#340,.F.);
#447=ORIENTED_EDGE('',*,*,#338,.T.);
#448=ORIENTED_EDGE('',*,*,#341,.T.);
#449=ORIENTED_EDGE('',*,*,#321,.T.);
#450=ORIENTED_EDGE('',*,*,#341,.F.);
#451=ORIENTED_EDGE('',*,*,#326,.T.);
#452=ORIENTED_EDGE('',*,*,#342,.T.);
#453=ORIENTED_EDGE('',*,*,#322,.T.);
#454=ORIENTED_EDGE('',*,*,#342,.F.);
#455=ORIENTED_EDGE('',*,*,#312,.F.);
#456=ORIENTED_EDGE('',*,*,#343,.T.);
#457=ORIENTED_EDGE('',*,*,#344,.F.);
#458=ORIENTED_EDGE('',*,*,#345,.F.);
#459=ORIENTED_EDGE('',*,*,#313,.T.);
#460=ORIENTED_EDGE('',*,*,#345,.T.);
#461=ORIENTED_EDGE('',*,*,#346,.F.);
#462=ORIENTED_EDGE('',*,*,#347,.F.);
#463=ORIENTED_EDGE('',*,*,#314,.F.);
#464=ORIENTED_EDGE('',*,*,#347,.T.);
#465=ORIENTED_EDGE('',*,*,#348,.F.);
#466=ORIENTED_EDGE('',*,*,#349,.F.);
#467=ORIENTED_EDGE('',*,*,#315,.T.);
#468=ORIENTED_EDGE('',*,*,#349,.T.);
#469=ORIENTED_EDGE('',*,*,#350,.F.);
#470=ORIENTED_EDGE('',*,*,#351,.F.);
#471=ORIENTED_EDGE('',*,*,#316,.F.);
#472=ORIENTED_EDGE('',*,*,#351,.T.);
#473=ORIENTED_EDGE('',*,*,#352,.F.);
#474=ORIENTED_EDGE('',*,*,#353,.F.);
#475=ORIENTED_EDGE('',*,*,#317,.T.);
#476=ORIENTED_EDGE('',*,*,#353,.T.);
#477=ORIENTED_EDGE('',*,*,#354,.F.);
#478=ORIENTED_EDGE('',*,*,#355,.F.);
#479=ORIENTED_EDGE('',*,*,#318,.F.);
#480=ORIENTED_EDGE('',*,*,#355,.T.);
#481=ORIENTED_EDGE('',*,*,#356,.F.);
#482=ORIENTED_EDGE('',*,*,#357,.F.);
#483=ORIENTED_EDGE('',*,*,#311,.T.);
#484=ORIENTED_EDGE('',*,*,#357,.T.);
#485=ORIENTED_EDGE('',*,*,#358,.F.);
#486=ORIENTED_EDGE('',*,*,#343,.F.);
#487=ORIENTED_EDGE('',*,*,#358,.T.);
#488=ORIENTED_EDGE('',*,*,#356,.T.);
#489=ORIENTED_EDGE('',*,*,#354,.T.);
#490=ORIENTED_EDGE('',*,*,#352,.T.);
#491=ORIENTED_EDGE('',*,*,#350,.T.);
#492=ORIENTED_EDGE('',*,*,#348,.T.);
#493=ORIENTED_EDGE('',*,*,#346,.T.);
#494=ORIENTED_EDGE('',*,*,#344,.T.);
#495=ORIENTED_EDGE('',*,*,#323,.T.);
#496=ORIENTED_EDGE('',*,*,#327,.T.);
#497=ORIENTED_EDGE('',*,*,#331,.T.);
#498=ORIENTED_EDGE('',*,*,#335,.T.);
#499=ORIENTED_EDGE('',*,*,#287,.T.);
#500=ORIENTED_EDGE('',*,*,#291,.T.);
#501=ORIENTED_EDGE('',*,*,#294,.T.);
#502=ORIENTED_EDGE('',*,*,#297,.T.);
#503=PLANE('',#569);
#504=PLANE('',#570);
#505=PLANE('',#571);
#506=PLANE('',#572);
#507=PLANE('',#573);
#508=PLANE('',#574);
#509=PLANE('',#575);
#510=PLANE('',#576);
#511=PLANE('',#577);
#512=PLANE('',#578);
#513=PLANE('',#590);
#514=PLANE('',#595);
#515=PLANE('',#600);
#516=PLANE('',#605);
#517=PLANE('',#611);
#518=PLANE('',#614);
#519=PLANE('',#617);
#520=PLANE('',#620);
#521=PLANE('',#623);
#522=PLANE('',#624);
#523=ADVANCED_FACE('',(#65),#503,.T.);
#524=ADVANCED_FACE('',(#66),#504,.T.);
#525=ADVANCED_FACE('',(#67),#505,.T.);
#526=ADVANCED_FACE('',(#68),#506,.T.);
#527=ADVANCED_FACE('',(#69),#507,.T.);
#528=ADVANCED_FACE('',(#70),#508,.T.);
#529=ADVANCED_FACE('',(#71),#509,.T.);
#530=ADVANCED_FACE('',(#72),#510,.T.);
#531=ADVANCED_FACE('',(#73,#51),#511,.T.);
#532=ADVANCED_FACE('',(#74,#52,#53,#54,#55,#56),#512,.F.);
#533=ADVANCED_FACE('',(#75),#15,.F.);
#534=ADVANCED_FACE('',(#76,#57),#513,.T.);
#535=ADVANCED_FACE('',(#77),#16,.F.);
#536=ADVANCED_FACE('',(#78,#58),#514,.T.);
#537=ADVANCED_FACE('',(#79),#17,.F.);
#538=ADVANCED_FACE('',(#80,#59),#515,.T.);
#539=ADVANCED_FACE('',(#81),#18,.F.);
#540=ADVANCED_FACE('',(#82,#60),#516,.T.);
#541=ADVANCED_FACE('',(#83),#19,.F.);
#542=ADVANCED_FACE('',(#84),#20,.F.);
#543=ADVANCED_FACE('',(#85),#21,.F.);
#544=ADVANCED_FACE('',(#86),#22,.F.);
#545=ADVANCED_FACE('',(#87),#517,.T.);
#546=ADVANCED_FACE('',(#88),#23,.T.);
#547=ADVANCED_FACE('',(#89),#518,.T.);
#548=ADVANCED_FACE('',(#90),#24,.T.);
#549=ADVANCED_FACE('',(#91),#519,.T.);
#550=ADVANCED_FACE('',(#92),#25,.T.);
#551=ADVANCED_FACE('',(#93),#520,.T.);
#552=ADVANCED_FACE('',(#94),#26,.T.);
#553=ADVANCED_FACE('',(#95,#61,#62,#63,#64),#521,.T.);
#554=ADVANCED_FACE('',(#96),#522,.F.);
#555=CLOSED_SHELL('',(#523,#524,#525,#526,#527,#528,#529,#530,#531,#532,
#533,#534,#535,#536,#537,#538,#539,#540,#541,#542,#543,#544,#545,#546,#547,
#548,#549,#550,#551,#552,#553,#554));
#556=DERIVED_UNIT_ELEMENT(#558,1.);
#557=DERIVED_UNIT_ELEMENT(#945,-3.);
#558=(
MASS_UNIT()
NAMED_UNIT(*)
SI_UNIT(.KILO.,.GRAM.)
);
#559=DERIVED_UNIT((#556,#557));
#560=MEASURE_REPRESENTATION_ITEM('density measure',
POSITIVE_RATIO_MEASURE(7850.),#559);
#561=PROPERTY_DEFINITION_REPRESENTATION(#566,#563);
#562=PROPERTY_DEFINITION_REPRESENTATION(#567,#564);
#563=REPRESENTATION('material name',(#565),#942);
#564=REPRESENTATION('density',(#560),#942);
#565=DESCRIPTIVE_REPRESENTATION_ITEM('Steel','Steel');
#566=PROPERTY_DEFINITION('material property','material name',#952);
#567=PROPERTY_DEFINITION('material property','density of part',#952);
#568=AXIS2_PLACEMENT_3D('',#787,#625,#626);
#569=AXIS2_PLACEMENT_3D('',#788,#627,#628);
#570=AXIS2_PLACEMENT_3D('',#797,#633,#634);
#571=AXIS2_PLACEMENT_3D('',#803,#638,#639);
#572=AXIS2_PLACEMENT_3D('',#809,#643,#644);
#573=AXIS2_PLACEMENT_3D('',#812,#647,#648);
#574=AXIS2_PLACEMENT_3D('',#821,#653,#654);
#575=AXIS2_PLACEMENT_3D('',#827,#658,#659);
#576=AXIS2_PLACEMENT_3D('',#833,#663,#664);
#577=AXIS2_PLACEMENT_3D('',#836,#667,#668);
#578=AXIS2_PLACEMENT_3D('',#837,#669,#670);
#579=AXIS2_PLACEMENT_3D('',#840,#671,#672);
#580=AXIS2_PLACEMENT_3D('',#844,#674,#675);
#581=AXIS2_PLACEMENT_3D('',#848,#677,#678);
#582=AXIS2_PLACEMENT_3D('',#852,#680,#681);
#583=AXIS2_PLACEMENT_3D('',#855,#683,#684);
#584=AXIS2_PLACEMENT_3D('',#857,#685,#686);
#585=AXIS2_PLACEMENT_3D('',#859,#687,#688);
#586=AXIS2_PLACEMENT_3D('',#861,#689,#690);
#587=AXIS2_PLACEMENT_3D('',#862,#691,#692);
#588=AXIS2_PLACEMENT_3D('',#864,#693,#694);
#589=AXIS2_PLACEMENT_3D('',#867,#696,#697);
#590=AXIS2_PLACEMENT_3D('',#868,#698,#699);
#591=AXIS2_PLACEMENT_3D('',#870,#700,#701);
#592=AXIS2_PLACEMENT_3D('',#871,#702,#703);
#593=AXIS2_PLACEMENT_3D('',#873,#704,#705);
#594=AXIS2_PLACEMENT_3D('',#876,#707,#708);
#595=AXIS2_PLACEMENT_3D('',#877,#709,#710);
#596=AXIS2_PLACEMENT_3D('',#879,#711,#712);
#597=AXIS2_PLACEMENT_3D('',#880,#713,#714);
#598=AXIS2_PLACEMENT_3D('',#882,#715,#716);
#599=AXIS2_PLACEMENT_3D('',#885,#718,#719);
#600=AXIS2_PLACEMENT_3D('',#886,#720,#721);
#601=AXIS2_PLACEMENT_3D('',#888,#722,#723);
#602=AXIS2_PLACEMENT_3D('',#889,#724,#725);
#603=AXIS2_PLACEMENT_3D('',#891,#726,#727);
#604=AXIS2_PLACEMENT_3D('',#894,#729,#730);
#605=AXIS2_PLACEMENT_3D('',#895,#731,#732);
#606=AXIS2_PLACEMENT_3D('',#897,#733,#734);
#607=AXIS2_PLACEMENT_3D('',#898,#735,#736);
#608=AXIS2_PLACEMENT_3D('',#900,#738,#739);
#609=AXIS2_PLACEMENT_3D('',#902,#741,#742);
#610=AXIS2_PLACEMENT_3D('',#904,#744,#745);
#611=AXIS2_PLACEMENT_3D('',#906,#747,#748);
#612=AXIS2_PLACEMENT_3D('',#912,#752,#753);
#613=AXIS2_PLACEMENT_3D('',#914,#754,#755);
#614=AXIS2_PLACEMENT_3D('',#916,#757,#758);
#615=AXIS2_PLACEMENT_3D('',#920,#761,#762);
#616=AXIS2_PLACEMENT_3D('',#922,#763,#764);
#617=AXIS2_PLACEMENT_3D('',#924,#766,#767);
#618=AXIS2_PLACEMENT_3D('',#928,#770,#771);
#619=AXIS2_PLACEMENT_3D('',#930,#772,#773);
#620=AXIS2_PLACEMENT_3D('',#932,#775,#776);
#621=AXIS2_PLACEMENT_3D('',#936,#779,#780);
#622=AXIS2_PLACEMENT_3D('',#937,#781,#782);
#623=AXIS2_PLACEMENT_3D('',#938,#783,#784);
#624=AXIS2_PLACEMENT_3D('',#939,#785,#786);
#625=DIRECTION('axis',(0.,0.,1.));
#626=DIRECTION('refdir',(1.,0.,0.));
#627=DIRECTION('center_axis',(0.,1.,0.));
#628=DIRECTION('ref_axis',(1.,0.,0.));
#629=DIRECTION('',(1.,0.,0.));
#630=DIRECTION('',(0.,0.,1.));
#631=DIRECTION('',(-1.,0.,0.));
#632=DIRECTION('',(0.,0.,-1.));
#633=DIRECTION('center_axis',(1.,0.,0.));
#634=DIRECTION('ref_axis',(0.,-1.,0.));
#635=DIRECTION('',(0.,-1.,0.));
#636=DIRECTION('',(0.,1.,0.));
#637=DIRECTION('',(0.,0.,-1.));
#638=DIRECTION('center_axis',(-9.86864910777917E-17,-1.,0.));
#639=DIRECTION('ref_axis',(-1.,9.86864910777917E-17,0.));
#640=DIRECTION('',(-1.,9.86864910777917E-17,0.));
#641=DIRECTION('',(1.,-9.86864910777917E-17,0.));
#642=DIRECTION('',(0.,0.,1.));
#643=DIRECTION('center_axis',(-1.,2.61228946970625E-16,0.));
#644=DIRECTION('ref_axis',(2.61228946970625E-16,1.,0.));
#645=DIRECTION('',(2.61228946970625E-16,1.,0.));
#646=DIRECTION('',(-2.61228946970625E-16,-1.,0.));
#647=DIRECTION('center_axis',(1.,-2.53765262771464E-16,0.));
#648=DIRECTION('ref_axis',(-2.53765262771464E-16,-1.,0.));
#649=DIRECTION('',(2.53765262771464E-16,1.,0.));
#650=DIRECTION('',(0.,0.,-1.));
#651=DIRECTION('',(-2.53765262771464E-16,-1.,0.));
#652=DIRECTION('',(0.,0.,-1.));
#653=DIRECTION('center_axis',(0.,1.,0.));
#654=DIRECTION('ref_axis',(1.,0.,0.));
#655=DIRECTION('',(-1.,0.,0.));
#656=DIRECTION('',(1.,0.,0.));
#657=DIRECTION('',(0.,0.,-1.));
#658=DIRECTION('center_axis',(-1.,1.26882631385732E-16,0.));
#659=DIRECTION('ref_axis',(1.26882631385732E-16,1.,0.));
#660=DIRECTION('',(-1.26882631385732E-16,-1.,0.));
#661=DIRECTION('',(1.26882631385732E-16,1.,0.));
#662=DIRECTION('',(0.,0.,-1.));
#663=DIRECTION('center_axis',(0.,-1.,0.));
#664=DIRECTION('ref_axis',(-1.,0.,0.));
#665=DIRECTION('',(1.,0.,0.));
#666=DIRECTION('',(-1.,0.,0.));
#667=DIRECTION('center_axis',(0.,0.,-1.));
#668=DIRECTION('ref_axis',(-1.,0.,0.));
#669=DIRECTION('center_axis',(0.,0.,1.));
#670=DIRECTION('ref_axis',(1.,0.,0.));
#671=DIRECTION('center_axis',(0.,0.,1.));
#672=DIRECTION('ref_axis',(1.,0.,0.));
#673=DIRECTION('',(-1.,0.,0.));
#674=DIRECTION('center_axis',(0.,0.,1.));
#675=DIRECTION('ref_axis',(1.,0.,0.));
#676=DIRECTION('',(0.,1.,0.));
#677=DIRECTION('center_axis',(0.,0.,1.));
#678=DIRECTION('ref_axis',(1.,0.,0.));
#679=DIRECTION('',(1.,0.,0.));
#680=DIRECTION('center_axis',(0.,0.,1.));
#681=DIRECTION('ref_axis',(1.,0.,0.));
#682=DIRECTION('',(0.,-1.,0.));
#683=DIRECTION('center_axis',(0.,0.,-1.));
#684=DIRECTION('ref_axis',(1.,0.,0.));
#685=DIRECTION('center_axis',(0.,0.,-1.));
#686=DIRECTION('ref_axis',(1.,0.,0.));
#687=DIRECTION('center_axis',(0.,0.,-1.));
#688=DIRECTION('ref_axis',(1.,0.,0.));
#689=DIRECTION('center_axis',(0.,0.,-1.));
#690=DIRECTION('ref_axis',(1.,0.,0.));
#691=DIRECTION('center_axis',(0.,0.,-1.));
#692=DIRECTION('ref_axis',(-1.,0.,0.));
#693=DIRECTION('center_axis',(0.,0.,-1.));
#694=DIRECTION('ref_axis',(-1.,0.,0.));
#695=DIRECTION('',(0.,0.,-1.));
#696=DIRECTION('center_axis',(0.,0.,-1.));
#697=DIRECTION('ref_axis',(-1.,0.,0.));
#698=DIRECTION('center_axis',(0.,0.,1.));
#699=DIRECTION('ref_axis',(-1.,0.,0.));
#700=DIRECTION('center_axis',(0.,0.,1.));
#701=DIRECTION('ref_axis',(1.,0.,0.));
#702=DIRECTION('center_axis',(0.,0.,-1.));
#703=DIRECTION('ref_axis',(-1.,0.,0.));
#704=DIRECTION('center_axis',(0.,0.,-1.));
#705=DIRECTION('ref_axis',(-1.,0.,0.));
#706=DIRECTION('',(0.,0.,-1.));
#707=DIRECTION('center_axis',(0.,0.,-1.));
#708=DIRECTION('ref_axis',(-1.,0.,0.));
#709=DIRECTION('center_axis',(0.,0.,1.));
#710=DIRECTION('ref_axis',(-1.,0.,0.));
#711=DIRECTION('center_axis',(0.,0.,1.));
#712=DIRECTION('ref_axis',(1.,0.,0.));
#713=DIRECTION('center_axis',(0.,0.,-1.));
#714=DIRECTION('ref_axis',(-1.,0.,0.));
#715=DIRECTION('center_axis',(0.,0.,-1.));
#716=DIRECTION('ref_axis',(-1.,0.,0.));
#717=DIRECTION('',(0.,0.,-1.));
#718=DIRECTION('center_axis',(0.,0.,-1.));
#719=DIRECTION('ref_axis',(-1.,0.,0.));
#720=DIRECTION('center_axis',(0.,0.,1.));
#721=DIRECTION('ref_axis',(-1.,0.,0.));
#722=DIRECTION('center_axis',(0.,0.,1.));
#723=DIRECTION('ref_axis',(1.,0.,0.));
#724=DIRECTION('center_axis',(0.,0.,-1.));
#725=DIRECTION('ref_axis',(-1.,0.,0.));
#726=DIRECTION('center_axis',(0.,0.,-1.));
#727=DIRECTION('ref_axis',(-1.,0.,0.));
#728=DIRECTION('',(0.,0.,-1.));
#729=DIRECTION('center_axis',(0.,0.,-1.));
#730=DIRECTION('ref_axis',(-1.,0.,0.));
#731=DIRECTION('center_axis',(0.,0.,1.));
#732=DIRECTION('ref_axis',(-1.,0.,0.));
#733=DIRECTION('center_axis',(0.,0.,1.));
#734=DIRECTION('ref_axis',(1.,0.,0.));
#735=DIRECTION('center_axis',(0.,0.,1.));
#736=DIRECTION('ref_axis',(1.,0.,0.));
#737=DIRECTION('',(0.,0.,-1.));
#738=DIRECTION('center_axis',(0.,0.,1.));
#739=DIRECTION('ref_axis',(1.,0.,0.));
#740=DIRECTION('',(0.,0.,-1.));
#741=DIRECTION('center_axis',(0.,0.,1.));
#742=DIRECTION('ref_axis',(1.,0.,0.));
#743=DIRECTION('',(0.,0.,-1.));
#744=DIRECTION('center_axis',(0.,0.,1.));
#745=DIRECTION('ref_axis',(1.,0.,0.));
#746=DIRECTION('',(0.,0.,-1.));
#747=DIRECTION('center_axis',(0.,-1.,0.));
#748=DIRECTION('ref_axis',(1.,0.,0.));
#749=DIRECTION('',(0.,0.,1.));
#750=DIRECTION('',(1.,0.,0.));
#751=DIRECTION('',(0.,0.,1.));
#752=DIRECTION('center_axis',(0.,0.,1.));
#753=DIRECTION('ref_axis',(-0.707106781186548,-0.707106781186547,0.));
#754=DIRECTION('center_axis',(0.,0.,1.));
#755=DIRECTION('ref_axis',(1.,0.,0.));
#756=DIRECTION('',(0.,0.,1.));
#757=DIRECTION('center_axis',(-1.,0.,0.));
#758=DIRECTION('ref_axis',(0.,-1.,0.));
#759=DIRECTION('',(0.,-1.,0.));
#760=DIRECTION('',(0.,0.,1.));
#761=DIRECTION('center_axis',(0.,0.,1.));
#762=DIRECTION('ref_axis',(-0.707106781186547,0.707106781186548,0.));
#763=DIRECTION('center_axis',(0.,0.,1.));
#764=DIRECTION('ref_axis',(1.,0.,0.));
#765=DIRECTION('',(0.,0.,1.));
#766=DIRECTION('center_axis',(0.,1.,0.));
#767=DIRECTION('ref_axis',(-1.,0.,0.));
#768=DIRECTION('',(-1.,0.,0.));
#769=DIRECTION('',(0.,0.,1.));
#770=DIRECTION('center_axis',(0.,0.,1.));
#771=DIRECTION('ref_axis',(1.,0.,0.));
#772=DIRECTION('center_axis',(0.,0.,1.));
#773=DIRECTION('ref_axis',(1.,0.,0.));
#774=DIRECTION('',(0.,0.,1.));
#775=DIRECTION('center_axis',(1.,0.,0.));
#776=DIRECTION('ref_axis',(0.,1.,0.));
#777=DIRECTION('',(0.,1.,0.));
#778=DIRECTION('',(0.,0.,1.));
#779=DIRECTION('center_axis',(0.,0.,1.));
#780=DIRECTION('ref_axis',(1.,0.,0.));
#781=DIRECTION('center_axis',(0.,0.,1.));
#782=DIRECTION('ref_axis',(1.,0.,0.));
#783=DIRECTION('center_axis',(0.,0.,1.));
#784=DIRECTION('ref_axis',(1.,0.,0.));
#785=DIRECTION('center_axis',(0.,0.,1.));
#786=DIRECTION('ref_axis',(1.,0.,0.));
#787=CARTESIAN_POINT('',(0.,0.,0.));
#788=CARTESIAN_POINT('Origin',(-45.,-34.2,0.));
#789=CARTESIAN_POINT('',(45.2,-34.2,0.));
#790=CARTESIAN_POINT('',(-45.2,-34.2,0.));
#791=CARTESIAN_POINT('',(-22.5,-34.2,0.));
#792=CARTESIAN_POINT('',(45.2,-34.2,-2.));
#793=CARTESIAN_POINT('',(45.2,-34.2,0.));
#794=CARTESIAN_POINT('',(-45.2,-34.2,-2.));
#795=CARTESIAN_POINT('',(-22.5,-34.2,-2.));
#796=CARTESIAN_POINT('',(-45.2,-34.2,0.));
#797=CARTESIAN_POINT('Origin',(-45.2,34.,0.));
#798=CARTESIAN_POINT('',(-45.2,34.2,0.));
#799=CARTESIAN_POINT('',(-45.2,17.,0.));
#800=CARTESIAN_POINT('',(-45.2,34.2,-2.));
#801=CARTESIAN_POINT('',(-45.2,17.,-2.));
#802=CARTESIAN_POINT('',(-45.2,34.2,0.));
#803=CARTESIAN_POINT('Origin',(45.,34.2,0.));
#804=CARTESIAN_POINT('',(45.2,34.2,0.));
#805=CARTESIAN_POINT('',(22.5,34.2,0.));
#806=CARTESIAN_POINT('',(45.2,34.2,-2.));
#807=CARTESIAN_POINT('',(22.5,34.2,-2.));
#808=CARTESIAN_POINT('',(45.2,34.2,0.));
#809=CARTESIAN_POINT('Origin',(45.2,-34.,0.));
#810=CARTESIAN_POINT('',(45.2,-17.,0.));
#811=CARTESIAN_POINT('',(45.2,-17.,-2.));
#812=CARTESIAN_POINT('Origin',(46.,35.,0.));
#813=CARTESIAN_POINT('',(46.,-35.,0.));
#814=CARTESIAN_POINT('',(46.,35.,0.));
#815=CARTESIAN_POINT('',(46.,17.5,0.));
#816=CARTESIAN_POINT('',(46.,-35.,-2.));
#817=CARTESIAN_POINT('',(46.,-35.,0.));
#818=CARTESIAN_POINT('',(46.,35.,-2.));
#819=CARTESIAN_POINT('',(46.,35.,-2.));
#820=CARTESIAN_POINT('',(46.,35.,0.));
#821=CARTESIAN_POINT('Origin',(-46.,35.,0.));
#822=CARTESIAN_POINT('',(-46.,35.,0.));
#823=CARTESIAN_POINT('',(-23.,35.,0.));
#824=CARTESIAN_POINT('',(-46.,35.,-2.));
#825=CARTESIAN_POINT('',(-46.,35.,-2.));
#826=CARTESIAN_POINT('',(-46.,35.,0.));
#827=CARTESIAN_POINT('Origin',(-46.,-35.,0.));
#828=CARTESIAN_POINT('',(-46.,-35.,0.));
#829=CARTESIAN_POINT('',(-46.,-17.5,0.));
#830=CARTESIAN_POINT('',(-46.,-35.,-2.));
#831=CARTESIAN_POINT('',(-46.,-35.,-2.));
#832=CARTESIAN_POINT('',(-46.,-35.,0.));
#833=CARTESIAN_POINT('Origin',(46.,-35.,0.));
#834=CARTESIAN_POINT('',(23.,-35.,0.));
#835=CARTESIAN_POINT('',(46.,-35.,-2.));
#836=CARTESIAN_POINT('Origin',(0.,0.,-2.));
#837=CARTESIAN_POINT('Origin',(0.,0.,0.));
#838=CARTESIAN_POINT('',(44.,-37.,0.));
#839=CARTESIAN_POINT('',(48.,-33.,0.));
#840=CARTESIAN_POINT('Origin',(48.,-37.,0.));
#841=CARTESIAN_POINT('',(-44.,-37.,0.));
#842=CARTESIAN_POINT('',(48.,-37.,0.));
#843=CARTESIAN_POINT('',(-48.,-33.,0.));
#844=CARTESIAN_POINT('Origin',(-48.,-37.,0.));
#845=CARTESIAN_POINT('',(-48.,33.,0.));
#846=CARTESIAN_POINT('',(-48.,-37.,0.));
#847=CARTESIAN_POINT('',(-44.,37.,0.));
#848=CARTESIAN_POINT('Origin',(-48.,37.,0.));
#849=CARTESIAN_POINT('',(44.,37.,0.));
#850=CARTESIAN_POINT('',(-48.,37.,0.));
#851=CARTESIAN_POINT('',(48.,33.,0.));
#852=CARTESIAN_POINT('Origin',(48.,37.,0.));
#853=CARTESIAN_POINT('',(48.,37.,0.));
#854=CARTESIAN_POINT('',(46.3,-37.,0.));
#855=CARTESIAN_POINT('Origin',(48.,-37.,0.));
#856=CARTESIAN_POINT('',(-49.7,37.,0.));
#857=CARTESIAN_POINT('Origin',(-48.,37.,0.));
#858=CARTESIAN_POINT('',(-49.7,-37.,0.));
#859=CARTESIAN_POINT('Origin',(-48.,-37.,0.));
#860=CARTESIAN_POINT('',(46.3,37.,0.));
#861=CARTESIAN_POINT('Origin',(48.,37.,0.));
#862=CARTESIAN_POINT('Origin',(48.,37.,2.));
#863=CARTESIAN_POINT('',(51.25,37.,2.));
#864=CARTESIAN_POINT('Origin',(48.,37.,2.));
#865=CARTESIAN_POINT('',(51.25,37.,1.));
#866=CARTESIAN_POINT('',(51.25,37.,2.));
#867=CARTESIAN_POINT('Origin',(48.,37.,1.));
#868=CARTESIAN_POINT('Origin',(48.,37.,1.));
#869=CARTESIAN_POINT('',(46.3,37.,1.));
#870=CARTESIAN_POINT('Origin',(48.,37.,1.));
#871=CARTESIAN_POINT('Origin',(48.,-37.,2.));
#872=CARTESIAN_POINT('',(51.25,-37.,2.));
#873=CARTESIAN_POINT('Origin',(48.,-37.,2.));
#874=CARTESIAN_POINT('',(51.25,-37.,1.));
#875=CARTESIAN_POINT('',(51.25,-37.,2.));
#876=CARTESIAN_POINT('Origin',(48.,-37.,1.));
#877=CARTESIAN_POINT('Origin',(48.,-37.,1.));
#878=CARTESIAN_POINT('',(46.3,-37.,1.));
#879=CARTESIAN_POINT('Origin',(48.,-37.,1.));
#880=CARTESIAN_POINT('Origin',(-48.,37.,2.));
#881=CARTESIAN_POINT('',(-44.75,37.,2.));
#882=CARTESIAN_POINT('Origin',(-48.,37.,2.));
#883=CARTESIAN_POINT('',(-44.75,37.,1.));
#884=CARTESIAN_POINT('',(-44.75,37.,2.));
#885=CARTESIAN_POINT('Origin',(-48.,37.,1.));
#886=CARTESIAN_POINT('Origin',(-48.,37.,1.));
#887=CARTESIAN_POINT('',(-49.7,37.,1.));
#888=CARTESIAN_POINT('Origin',(-48.,37.,1.));
#889=CARTESIAN_POINT('Origin',(-48.,-37.,2.));
#890=CARTESIAN_POINT('',(-44.75,-37.,2.));
#891=CARTESIAN_POINT('Origin',(-48.,-37.,2.));
#892=CARTESIAN_POINT('',(-44.75,-37.,1.));
#893=CARTESIAN_POINT('',(-44.75,-37.,2.));
#894=CARTESIAN_POINT('Origin',(-48.,-37.,1.));
#895=CARTESIAN_POINT('Origin',(-48.,-37.,1.));
#896=CARTESIAN_POINT('',(-49.7,-37.,1.));
#897=CARTESIAN_POINT('Origin',(-48.,-37.,1.));
#898=CARTESIAN_POINT('Origin',(48.,-37.,0.));
#899=CARTESIAN_POINT('',(46.3,-37.,0.));
#900=CARTESIAN_POINT('Origin',(-48.,37.,0.));
#901=CARTESIAN_POINT('',(-49.7,37.,0.));
#902=CARTESIAN_POINT('Origin',(-48.,-37.,0.));
#903=CARTESIAN_POINT('',(-49.7,-37.,0.));
#904=CARTESIAN_POINT('Origin',(48.,37.,0.));
#905=CARTESIAN_POINT('',(46.3,37.,0.));
#906=CARTESIAN_POINT('Origin',(-44.,-37.,0.));
#907=CARTESIAN_POINT('',(44.,-37.,2.));
#908=CARTESIAN_POINT('',(44.,-37.,0.));
#909=CARTESIAN_POINT('',(-44.,-37.,2.));
#910=CARTESIAN_POINT('',(48.,-37.,2.));
#911=CARTESIAN_POINT('',(-44.,-37.,0.));
#912=CARTESIAN_POINT('Origin',(-48.,-37.,0.));
#913=CARTESIAN_POINT('',(-48.,-33.,2.));
#914=CARTESIAN_POINT('Origin',(-48.,-37.,2.));
#915=CARTESIAN_POINT('',(-48.,-33.,0.));
#916=CARTESIAN_POINT('Origin',(-48.,33.,0.));
#917=CARTESIAN_POINT('',(-48.,33.,2.));
#918=CARTESIAN_POINT('',(-48.,-37.,2.));
#919=CARTESIAN_POINT('',(-48.,33.,0.));
#920=CARTESIAN_POINT('Origin',(-48.,37.,0.));
#921=CARTESIAN_POINT('',(-44.,37.,2.));
#922=CARTESIAN_POINT('Origin',(-48.,37.,2.));
#923=CARTESIAN_POINT('',(-44.,37.,0.));
#924=CARTESIAN_POINT('Origin',(44.,37.,0.));
#925=CARTESIAN_POINT('',(44.,37.,2.));
#926=CARTESIAN_POINT('',(-48.,37.,2.));
#927=CARTESIAN_POINT('',(44.,37.,0.));
#928=CARTESIAN_POINT('Origin',(48.,37.,0.));
#929=CARTESIAN_POINT('',(48.,33.,2.));
#930=CARTESIAN_POINT('Origin',(48.,37.,2.));
#931=CARTESIAN_POINT('',(48.,33.,0.));
#932=CARTESIAN_POINT('Origin',(48.,-33.,0.));
#933=CARTESIAN_POINT('',(48.,-33.,2.));
#934=CARTESIAN_POINT('',(48.,37.,2.));
#935=CARTESIAN_POINT('',(48.,-33.,0.));
#936=CARTESIAN_POINT('Origin',(48.,-37.,0.));
#937=CARTESIAN_POINT('Origin',(48.,-37.,2.));
#938=CARTESIAN_POINT('Origin',(0.,0.,2.));
#939=CARTESIAN_POINT('Origin',(0.,0.,0.));
#940=UNCERTAINTY_MEASURE_WITH_UNIT(LENGTH_MEASURE(0.01),#944,
'DISTANCE_ACCURACY_VALUE',
'Maximum model space distance between geometric entities at asserted c
onnectivities');
#941=UNCERTAINTY_MEASURE_WITH_UNIT(LENGTH_MEASURE(0.01),#944,
'DISTANCE_ACCURACY_VALUE',
'Maximum model space distance between geometric entities at asserted c
onnectivities');
#942=(
GEOMETRIC_REPRESENTATION_CONTEXT(3)
GLOBAL_UNCERTAINTY_ASSIGNED_CONTEXT((#940))
GLOBAL_UNIT_ASSIGNED_CONTEXT((#944,#946,#947))
REPRESENTATION_CONTEXT('','3D')
);
#943=(
GEOMETRIC_REPRESENTATION_CONTEXT(3)
GLOBAL_UNCERTAINTY_ASSIGNED_CONTEXT((#941))
GLOBAL_UNIT_ASSIGNED_CONTEXT((#944,#946,#947))
REPRESENTATION_CONTEXT('','3D')
);
#944=(
LENGTH_UNIT()
NAMED_UNIT(*)
SI_UNIT(.MILLI.,.METRE.)
);
#945=(
LENGTH_UNIT()
NAMED_UNIT(*)
SI_UNIT($,.METRE.)
);
#946=(
NAMED_UNIT(*)
PLANE_ANGLE_UNIT()
SI_UNIT($,.RADIAN.)
);
#947=(
NAMED_UNIT(*)
SI_UNIT($,.STERADIAN.)
SOLID_ANGLE_UNIT()
);
#948=SHAPE_DEFINITION_REPRESENTATION(#949,#950);
#949=PRODUCT_DEFINITION_SHAPE('',$,#952);
#950=SHAPE_REPRESENTATION('',(#568),#942);
#951=PRODUCT_DEFINITION_CONTEXT('part definition',#956,'design');
#952=PRODUCT_DEFINITION('2026-01-24-18-20-59-864','top_lid',#953,#951);
#953=PRODUCT_DEFINITION_FORMATION('',$,#958);
#954=PRODUCT_RELATED_PRODUCT_CATEGORY('top_lid','top_lid',(#958));
#955=APPLICATION_PROTOCOL_DEFINITION('international standard',
'automotive_design',2009,#956);
#956=APPLICATION_CONTEXT(
'Core Data for Automotive Mechanical Design Process');
#957=PRODUCT_CONTEXT('part definition',#956,'mechanical');
#958=PRODUCT('2026-01-24-18-20-59-864','top_lid',$,(#957));
#959=PRESENTATION_STYLE_ASSIGNMENT((#960));
#960=SURFACE_STYLE_USAGE(.BOTH.,#961);
#961=SURFACE_SIDE_STYLE('',(#962));
#962=SURFACE_STYLE_FILL_AREA(#963);
#963=FILL_AREA_STYLE('Steel - Satin',(#964));
#964=FILL_AREA_STYLE_COLOUR('Steel - Satin',#965);
#965=COLOUR_RGB('Steel - Satin',0.627450980392157,0.627450980392157,0.627450980392157);
ENDSEC;
END-ISO-10303-21;
